<?xml version="1.0" encoding="UTF-8"?><svg version="1.1" width="24px" height="24px" viewBox="0 0 24.0 24.0" xmlns="http://www.w3.org/2000/svg" xmlns:xlink="http://www.w3.org/1999/xlink"><defs><clipPath id="i0"><path d="M7.182,0 C9.5,0 10.811,1.064 11.818,2.508 L10.051,3.819 C9.234,2.698 8.455,2.09 7.125,2.09 C5.776,2.09 4.731,2.983 4.199,4.408 L8.284,4.408 L8.284,6.023 L3.838,6.023 C3.819,6.27 3.8,6.555 3.8,6.84 L3.8,6.878 C3.8,7.144 3.819,7.391 3.838,7.638 L8.284,7.638 L8.284,9.253 L4.18,9.253 C4.693,10.735 5.795,11.666 7.277,11.666 C8.55,11.666 9.31,11.001 10.184,9.861 L11.856,11.077 C10.773,12.654 9.424,13.756 7.258,13.756 C4.446,13.756 2.451,11.932 1.729,9.253 L0,9.253 L0,7.638 L1.463,7.638 C1.45033333,7.47333333 1.44611111,7.31711111 1.4447037,7.15807407 L1.444,6.878 C1.444,6.593 1.444,6.289 1.482,6.023 L0,6.023 L0,4.408 L1.786,4.408 C2.546,1.843 4.503,0 7.182,0 Z"></path></clipPath><clipPath id="i1"><path d="M20,0 L20,20 L0,20 L0,0 L20,0 Z"></path></clipPath></defs><g transform="translate(6.000000000000001 5.0)"><g clip-path="url(#i0)"><g transform="translate(-6.000000000000001 -5.0)"><g transform="translate(2.0 2.0)"><g clip-path="url(#i1)"><polygon points="4,3 15.856,3 15.856,16.756 4,16.756 4,3" stroke="none" fill="#31393E"></polygon></g></g></g></g></g></svg>