<?xml version="1.0" encoding="UTF-8"?><svg version="1.1" width="24px" height="24px" viewBox="0 0 24.0 24.0" xmlns="http://www.w3.org/2000/svg" xmlns:xlink="http://www.w3.org/1999/xlink"><defs><clipPath id="i0"><path d="M12.8604651,0 C13.4898129,0 14,0.510187146 14,1.13953488 L14,12.8604651 C14,13.4898129 13.4898129,14 12.8604651,14 L1.13953488,14 C0.510187146,14 0,13.4898129 0,12.8604651 L0,1.13953488 C0,0.510187146 0.510187146,0 1.13953488,0 L12.8604651,0 Z M12.8604651,0.976744186 L1.13953488,0.976744186 C1.04962806,0.976744186 0.976744186,1.04962806 0.976744186,1.13953488 L0.976744186,12.8604651 C0.976744186,12.9503719 1.04962806,13.0232558 1.13953488,13.0232558 L12.8604651,13.0232558 C12.9503719,13.0232558 13.0232558,12.9503719 13.0232558,12.8604651 L13.0232558,1.13953488 C13.0232558,1.04962806 12.9503719,0.976744186 12.8604651,0.976744186 Z M11.3512537,5.3470719 C11.5448862,5.53483668 11.5496428,5.84402019 11.3618781,6.03765262 L8.24572713,9.25118327 C8.05386431,9.4490418 7.7363849,9.4490418 7.54452209,9.25118327 L4.77897367,6.39921146 L2.79246298,8.44780061 C2.60469821,8.64143303 2.29551469,8.6461897 2.10188227,8.45842493 C1.90824984,8.27066015 1.90349317,7.96147663 2.09125795,7.76784421 L4.42837115,5.35769622 C4.62023396,5.15983769 4.93771337,5.15983769 5.12957619,5.35769622 L7.89512461,8.20966803 L10.660673,5.35769622 C10.8484378,5.1640638 11.1576213,5.15930713 11.3512537,5.3470719 Z"></path></clipPath><clipPath id="i1"><path d="M24,0 L24,25 L0,25 L0,0 L24,0 Z"></path></clipPath></defs><g transform="translate(5.0 5.0)"><g clip-path="url(#i0)"><g transform="translate(-5.0 -5.0)"><g transform="translate(0.0 -1.0)"><g clip-path="url(#i1)"><polygon points="5,6 19,6 19,20 5,20 5,6" stroke="none" fill="#31393E"></polygon></g></g></g></g></g></svg>