<?xml version="1.0" encoding="UTF-8"?><svg version="1.1" width="24px" height="24px" viewBox="0 0 24.0 24.0" xmlns="http://www.w3.org/2000/svg" xmlns:xlink="http://www.w3.org/1999/xlink"><defs><clipPath id="i0"><path d="M8.11546469,12.2692774 C8.39160706,12.2692774 8.61546469,12.493135 8.61546469,12.7692774 C8.61546469,13.0454197 8.39160706,13.2692774 8.11546469,13.2692774 L5.57700315,13.2692774 C5.82700315,13.2692774 6.07700315,13.1026107 6.07700315,12.7692774 L6.077,12.269 L8.11546469,12.2692774 Z M5.077,12.269 L5.07700315,12.7692774 C5.07700315,13.1026107 5.32700315,13.2692774 5.57700315,13.2692774 L3.03854161,13.2692774 C2.76239923,13.2692774 2.53854161,13.0454197 2.53854161,12.7692774 C2.53854161,12.493135 2.76239923,12.2692774 3.03854161,12.2692774 L5.077,12.269 Z M9.25769022,0.0880580427 C10.9620105,1.26006534 12.0000801,3.17780463 12.0000801,5.2677534 C12.0000801,8.75388308 9.1356526,11.5769697 5.60579447,11.5769697 C3.29859242,11.5769697 1.20483934,10.3607345 0.0689003754,8.4259248 C-0.0709095795,8.18779083 0.00879778362,7.88140674 0.246931754,7.74159679 C0.485065724,7.60178683 0.791449811,7.6814942 0.931259766,7.91962817 C1.88883208,9.55063146 3.65567687,10.5769697 5.60579447,10.5769697 C8.58659581,10.5769697 11.0000801,8.19831805 11.0000801,5.2677534 C11.0000801,3.51162733 10.127681,1.89994916 8.69106716,0.912035169 C8.46353216,0.75556653 8.40592149,0.444270075 8.56239013,0.216735074 C8.71885876,-0.0107999263 9.03015522,-0.0684105956 9.25769022,0.0880580427 Z M5.57700315,0.423123529 C8.18973485,0.423123529 10.3077724,2.54116106 10.3077724,5.15389276 C10.3077724,7.76662446 8.18973485,9.88466199 5.57700315,9.88466199 C2.96427145,9.88466199 0.846233917,7.76662446 0.846233917,5.15389276 C0.846233917,2.54116106 2.96427145,0.423123529 5.57700315,0.423123529 Z M5.57700315,1.42312353 C3.5165562,1.42312353 1.84623392,3.09344581 1.84623392,5.15389276 C1.84623392,7.21433971 3.5165562,8.88466199 5.57700315,8.88466199 C7.6374501,8.88466199 9.30777238,7.21433971 9.30777238,5.15389276 C9.30777238,3.09344581 7.6374501,1.42312353 5.57700315,1.42312353 Z"></path></clipPath><clipPath id="i1"><path d="M24,0 L24,24 L0,24 L0,0 L24,0 Z"></path></clipPath></defs><g transform="translate(6.499919929281533 5.499953394260957)"><g clip-path="url(#i0)"><g transform="translate(-6.499919929281533 -5.499953394260957)"><g clip-path="url(#i1)"><polygon points="6.49991993,5.49995339 18.5,5.49995339 18.5,18.7692308 6.49991993,18.7692308 6.49991993,5.49995339" stroke="none" fill="#31393E"></polygon></g></g></g></g></svg>