<?xml version="1.0" encoding="UTF-8"?><svg version="1.1" width="24px" height="24px" viewBox="0 0 24.0 24.0" xmlns="http://www.w3.org/2000/svg" xmlns:xlink="http://www.w3.org/1999/xlink"><defs><clipPath id="i0"><path d="M9.4375,0 C9.71364237,0 9.9375,0.223857625 9.9375,0.5 L9.9375,1.94444444 C9.9375,2.22058682 9.71364237,2.44444444 9.4375,2.44444444 C9.16135763,2.44444444 8.9375,2.22058682 8.9375,1.94444444 L8.9375,1 L2.125,1 C1.49142016,1 1,1.43681792 1,1.94444444 C1,2.45207097 1.49142016,2.88888889 2.125,2.88888889 L12.6875,2.88888889 C12.9636424,2.88888889 13.1875,3.11274651 13.1875,3.38888889 L13.1875,11.3333333 C13.1875,11.6094757 12.9636424,11.8333333 12.6875,11.8333333 L2.125,11.8333333 C0.9636544,11.8333333 0,10.9767516 0,9.88888889 L0,1.94444444 C0,0.856581689 0.9636544,0 2.125,0 L9.4375,0 Z M1,3.59462553 L1,9.88888889 C1,10.3965154 1.49142016,10.8333333 2.125,10.8333333 L12.1875,10.8333333 L12.1875,3.88888889 L2.125,3.88888889 C1.71390368,3.88888889 1.32757882,3.78155595 1,3.59462553 Z M9.03125,5.77777778 C9.96822992,5.77777778 10.75,6.47268452 10.75,7.36111111 C10.75,8.24953771 9.96822992,8.94444444 9.03125,8.94444444 C8.09427008,8.94444444 7.3125,8.24953771 7.3125,7.36111111 C7.3125,6.47268452 8.09427008,5.77777778 9.03125,5.77777778 Z M9.03125,6.77777778 C8.62203584,6.77777778 8.3125,7.05292075 8.3125,7.36111111 C8.3125,7.66930147 8.62203584,7.94444444 9.03125,7.94444444 C9.44046416,7.94444444 9.75,7.66930147 9.75,7.36111111 C9.75,7.05292075 9.44046416,6.77777778 9.03125,6.77777778 Z"></path></clipPath><clipPath id="i1"><path d="M24,0 L24,24 L0,24 L0,0 L24,0 Z"></path></clipPath></defs><g transform="translate(5.90625 5.861111111111086)"><g clip-path="url(#i0)"><g transform="translate(-5.90625 -5.861111111111086)"><g clip-path="url(#i1)"><polygon points="5.90625,5.86111111 19.09375,5.86111111 19.09375,17.6944444 5.90625,17.6944444 5.90625,5.86111111" stroke="none" fill="#31393E"></polygon></g></g></g></g></svg>