<?xml version="1.0" encoding="UTF-8"?><svg version="1.1" width="24px" height="24px" viewBox="0 0 24.0 24.0" xmlns="http://www.w3.org/2000/svg" xmlns:xlink="http://www.w3.org/1999/xlink"><defs><clipPath id="i0"><path d="M8.68181818,0 C9.86177874,0 10.8181818,0.95640308 10.8181818,2.13636364 L10.818,2.181 L12.5,2.18181818 C12.7761424,2.18181818 13,2.40567581 13,2.68181818 L13,8.68181818 C13,8.95796056 12.7761424,9.18181818 12.5,9.18181818 C12.2238576,9.18181818 12,8.95796056 12,8.68181818 L12,3.18181818 L1,3.18181818 L1,7.63636364 L2.681,7.636 L4.31818182,7.63636364 C4.59432419,7.63636364 4.81818182,7.86022126 4.81818182,8.13636364 C4.81818182,8.41250601 4.59432419,8.63636364 4.31818182,8.63636364 L3.189,8.636 L3.20156355,8.78790462 C3.39083584,10.5929845 4.91754081,12 6.77272727,12 C8.75585763,12 10.3636364,10.3922213 10.3636364,8.40909091 L10.3636364,4.89377057 C9.6789949,5.10669569 9.18181818,5.74534283 9.18181818,6.5 L9.18181818,7.59090909 C9.18181818,7.86705147 8.95796056,8.09090909 8.68181818,8.09090909 C7.75305147,8.09090909 7,8.84396056 7,9.77272727 C7,10.0488696 6.77614237,10.2727273 6.5,10.2727273 C6.22385763,10.2727273 6,10.0488696 6,9.77272727 C6,8.46254427 6.93968493,7.37170392 8.18181818,7.13744283 L8.18181818,6.5 C8.18181818,5.01894853 9.3825849,3.81818182 10.8636364,3.81818182 C11.1397787,3.81818182 11.3636364,4.04203944 11.3636364,4.31818182 L11.3636364,8.40909091 C11.3636364,10.944506 9.30814237,13 6.77272727,13 C4.38219303,13 2.41829887,11.1727078 2.20165965,8.83873825 L2.187,8.636 L0.5,8.63636364 C0.223857625,8.63636364 0,8.41250601 0,8.13636364 L0,2.68181818 C0,2.40567581 0.223857625,2.18181818 0.5,2.18181818 L2.181,2.181 L2.18181818,2.13636364 C2.18181818,0.95640308 3.13822126,0 4.31818182,0 L8.68181818,0 Z M2.68181818,7.63636364 C2.40567581,7.63636364 2.18181818,7.86022126 2.18181818,8.13636364 L2.18181818,8.40909091 C2.18181818,8.48153134 2.18349614,8.55358 2.1868153,8.62520014 L2.187,8.636 L3.189,8.636 L3.18679589,8.59979363 L3.18181818,8.40909091 L3.18181818,8.13636364 C3.18181818,7.86022126 2.95796056,7.63636364 2.68181818,7.63636364 Z M6.5,4.36363636 C7.0773886,4.36363636 7.54545455,4.83170231 7.54545455,5.40909091 C7.54545455,5.98647951 7.0773886,6.45454545 6.5,6.45454545 C5.9226114,6.45454545 5.45454545,5.98647951 5.45454545,5.40909091 C5.45454545,4.83170231 5.9226114,4.36363636 6.5,4.36363636 Z M6.5,4.86363636 C6.19875377,4.86363636 5.95454545,5.10784468 5.95454545,5.40909091 C5.95454545,5.71033714 6.19875377,5.95454545 6.5,5.95454545 C6.80124623,5.95454545 7.04545455,5.71033714 7.04545455,5.40909091 C7.04545455,5.10784468 6.80124623,4.86363636 6.5,4.86363636 Z M8.68181818,1 L4.31818182,1 C3.69050601,1 3.18181818,1.50868783 3.18181818,2.13636364 L3.181,2.181 L9.818,2.181 L9.81818182,2.13636364 C9.81818182,1.50868783 9.30949399,1 8.68181818,1 Z"></path></clipPath><clipPath id="i1"><path d="M24,0 L24,24 L0,24 L0,0 L24,0 Z"></path></clipPath></defs><g transform="translate(5.5 5.5)"><g clip-path="url(#i0)"><g transform="translate(-5.5 -5.5)"><g clip-path="url(#i1)"><polygon points="5.5,5.5 18.5,5.5 18.5,18.5 5.5,18.5 5.5,5.5" stroke="none" fill="#31393E"></polygon></g></g></g></g></svg>