<?xml version="1.0" encoding="UTF-8"?><svg version="1.1" width="24px" height="24px" viewBox="0 0 24.0 24.0" xmlns="http://www.w3.org/2000/svg" xmlns:xlink="http://www.w3.org/1999/xlink"><defs><clipPath id="i0"><path d="M8,0 C10.1674571,0 12.1335928,0.861959442 13.5743206,2.26179175 L13.656,2.343 L13.7382083,2.42567943 C15.1380406,3.86640715 16,5.83254287 16,8 C16,12.418278 12.418278,16 8,16 C3.581722,16 0,12.418278 0,8 C0,3.581722 3.581722,0 8,0 Z M10.453239,11.1596044 C9.77582951,11.6863305 8.92454548,12 8,12 C7.07545452,12 6.22417049,11.6863305 5.54676096,11.1596044 L3.41629803,13.2906721 C4.64436856,14.3555667 6.24692655,15 8,15 C9.75307345,15 11.3556314,14.3555667 12.583702,13.2906721 L10.453239,11.1596044 Z M2.70932788,3.41629803 C1.64443329,4.64436856 1,6.24692655 1,8 C1,9.75307345 1.64443329,11.3556314 2.70932788,12.583702 L4.84039558,10.453239 C4.31366954,9.77582951 4,8.92454548 4,8 C4,7.07545452 4.31366954,6.22417049 4.84039558,5.54676096 L2.70932788,3.41629803 Z M11.159,5.547 L11.2501508,5.66784739 C11.7220794,6.32437807 12,7.12973312 12,8 C12,8.92454548 11.6863305,9.77582951 11.1596044,10.453239 L13.2906721,12.583702 C14.3555667,11.3556314 15,9.75307345 15,8 C15,6.30862795 14.4001315,4.7573627 13.4015403,3.54734997 L13.29,3.416 L11.159,5.547 Z M8,5 C7.17601088,5 6.42961084,5.33219836 5.88742254,5.86997244 C5.88517215,5.87386814 5.88238328,5.8767235 5.87955339,5.87955339 L5.86997244,5.88742254 C5.33219836,6.42961084 5,7.17601088 5,8 C5,8.82398912 5.33219836,9.57038916 5.86997244,10.1125775 C5.87386814,10.1148278 5.8767235,10.1176167 5.87955339,10.1204466 L5.88742254,10.1300276 C6.42961084,10.6678016 7.17601088,11 8,11 C8.82398912,11 9.57038916,10.6678016 10.1125775,10.1300276 C10.1148278,10.1261319 10.1176167,10.1232765 10.1204466,10.1204466 L10.1300276,10.1125775 C10.6678016,9.57038916 11,8.82398912 11,8 C11,7.23074624 10.7104699,6.52911587 10.2344377,5.99813702 L10.129,5.887 L10.1204466,5.87955339 L10.112,5.87 L10.001863,5.76556229 C9.47088413,5.28953014 8.76925376,5 8,5 Z M10.452,4.84 L10.1204466,5.17244661 C9.94688026,5.34601296 9.92759511,5.61543736 10.0625912,5.8103055 L10.112,5.87 L10.1213203,5.87867966 L10.129,5.887 L10.1896945,5.93740884 C10.3602041,6.05553039 10.5877959,6.05553039 10.7583055,5.93740884 L10.8275534,5.87955339 L11.159,5.547 L11.1378385,5.51902035 C10.9450387,5.2755057 10.7244943,5.05496134 10.4809796,4.86216154 L10.452,4.84 Z M12.583,2.709 L12.45265,2.5984597 C11.2426373,1.59986848 9.69137205,1 8,1 C6.24692655,1 4.64436856,1.64443329 3.41629803,2.70932788 L5.54676096,4.84039558 C6.22417049,4.31366954 7.07545452,4 8,4 C8.87026688,4 9.67562193,4.27792058 10.3321526,4.7498492 L10.452,4.84 L12.583,2.709 Z M12.583,2.709 L12.6231658,2.74380627 C12.847367,2.94116031 13.0588397,3.15263296 13.2561937,3.37683418 L13.29,3.416 L13.6565534,3.05055339 C13.8301197,2.87698704 13.8494049,2.60756264 13.7144088,2.4126945 L13.656,2.343 L13.5873055,2.28559116 C13.4167959,2.16746961 13.1892041,2.16746961 13.0186945,2.28559116 L12.9494466,2.34344661 L12.583,2.709 Z"></path></clipPath><clipPath id="i1"><path d="M24,0 L24,24 L0,24 L0,0 L24,0 Z"></path></clipPath></defs><g transform="translate(4.0 4.0)"><g clip-path="url(#i0)"><g transform="translate(-4.0 -4.0)"><g clip-path="url(#i1)"><polygon points="4,4 20,4 20,20 4,20 4,4" stroke="none" fill="#31393E"></polygon></g></g></g></g></svg>