<?xml version="1.0" encoding="UTF-8"?><svg version="1.1" width="24px" height="24px" viewBox="0 0 24.0 24.0" xmlns="http://www.w3.org/2000/svg" xmlns:xlink="http://www.w3.org/1999/xlink"><defs><clipPath id="i0"><path d="M3.36032463,8.51820939 C4.75382199,8.51820939 6.27359045,9.26239052 7.09248512,10.34354 L9.1640144,10.34354 C9.92759805,10.34354 10.6735067,10.750525 11.2047854,11.3568719 L15.0959963,11.3576125 C16.138709,11.3576125 16.8930439,11.6154277 17.3891102,12.0659319 C17.7181348,12.3647366 17.8750914,12.6831785 17.9218968,12.9311328 L18,13.3448894 L17.6198284,13.4982587 L9.21925316,16.8872213 C8.42542359,17.2029002 7.5344675,17.1661875 6.76627282,16.7846559 L3.268,15.02 L3.268,13.895 L2.99458129,13.7576757 L2.5551706,13.5360013 L2.29,14.095 L2.29,9.528 L3.268,9.528 L3.268,8.518 L3.36032463,8.51820939 Z M3.26898113,7.09850783 L3.268,8.518 L2.29,8.518 L2.29093017,8.1086801 L0.978050959,8.1086801 L0.978050959,15.1434834 L2.29093017,15.1434834 L2.29,14.526 L3.268,15.02 L3.26898113,16.1536556 L0,16.1536556 L0,7.09850783 L3.26898113,7.09850783 Z M3.36032463,9.52838166 L3.268,9.528 L3.268,13.895 L7.19282082,15.875619 C7.71510766,16.1350108 8.32553074,16.1601639 8.86562243,15.9453942 L16.6981409,12.7855912 C16.3869867,12.5302385 15.8746153,12.3677848 15.0959963,12.3677848 L11.8080125,12.3674219 C11.9150819,12.6616146 11.9745158,12.9707532 11.9745158,13.2824002 L11.9745158,13.7874864 L5.77314404,13.7874864 L5.77314404,12.7773141 L10.9117644,12.7773141 C10.8653129,12.6362514 10.8011444,12.4985035 10.7227473,12.3677006 L10.7135674,12.3525224 C10.3679102,11.7861332 9.75579598,11.3537122 9.1640144,11.3537122 L6.57931528,11.3537122 L6.43435335,11.1267865 C5.85291616,10.2165951 4.53010736,9.52838166 3.36032463,9.52838166 Z M13.7764205,3.78587084 C15.3117476,3.78587084 16.5563761,5.07137568 16.5563761,6.65712625 C16.5563761,8.24287683 15.3117476,9.52838166 13.7764205,9.52838166 C12.2410934,9.52838166 10.9964648,8.24287683 10.9964648,6.65712625 C10.9964648,5.07137568 12.2410934,3.78587084 13.7764205,3.78587084 Z M6.90362997,0 C8.43895708,0 9.68358562,1.28550483 9.68358562,2.87125541 C9.68358562,4.45700599 8.43895708,5.74251082 6.90362997,5.74251082 C5.36830285,5.74251082 4.12367431,4.45700599 4.12367431,2.87125541 C4.12367431,1.28550483 5.36830285,0 6.90362997,0 Z M6.90362997,1.01017227 C5.90846548,1.01017227 5.10172527,1.84340757 5.10172527,2.87125541 C5.10172527,3.89910325 5.90846548,4.73233855 6.90362997,4.73233855 C7.89879445,4.73233855 8.70553466,3.89910325 8.70553466,2.87125541 C8.70553466,1.84340757 7.89879445,1.01017227 6.90362997,1.01017227 Z"></path></clipPath><clipPath id="i1"><path d="M24,0 L24,24 L0,24 L0,0 L24,0 Z"></path></clipPath></defs><g transform="translate(3.0 3.0)"><g clip-path="url(#i0)"><g transform="translate(-3.0 -3.0)"><g transform=""><g clip-path="url(#i1)"><polygon points="3,3 21,3 21,20.1 3,20.1 3,3" stroke="none" fill="#31393E"></polygon></g></g></g></g></g></svg>