<?xml version="1.0" encoding="UTF-8"?><svg version="1.1" width="24px" height="24px" viewBox="0 0 24.0 24.0" xmlns="http://www.w3.org/2000/svg" xmlns:xlink="http://www.w3.org/1999/xlink"><defs><clipPath id="i0"><path d="M16.5957447,0 L16.595,3.404 L20,3.40425532 L20,11.914 L20,13.191 L20,20 L0,20 L0,13.191 L0,11.9148936 L0,3.40425532 L3.404,3.404 L3.40425532,0 L16.5957447,0 Z M1.27659574,18.7234043 L18.7234043,18.7234043 L18.723,13.191 L14.0425532,13.1914894 L14.0425532,15.4609929 L5.95744681,15.4609929 L5.95744681,13.1914894 L1.276,13.191 L1.27659574,18.7234043 Z M15.3191489,1.27659574 L4.68085106,1.27659574 L4.68,3.404 L4.68,4.68 L4.68,11.914 L7.23404255,11.9148936 L7.23404255,14.1843972 L12.7659574,14.1843972 L12.7659574,11.9148936 L15.319,11.914 L15.319,4.68 L15.3191489,3.40425532 L15.3191489,1.27659574 Z M16.595,11.914 L18.723,11.914 L18.7234043,4.68085106 L16.595,4.68 L16.595,11.914 Z M3.404,4.68 L1.27659574,4.68085106 L1.276,11.914 L3.404,11.914 L3.404,4.68 Z M13.1914894,7.37588652 L13.1914894,8.65248227 L6.80851064,8.65248227 L6.80851064,7.37588652 L13.1914894,7.37588652 Z M13.1914894,3.97163121 L13.1914894,5.24822695 L6.80851064,5.24822695 L6.80851064,3.97163121 L13.1914894,3.97163121 Z"></path></clipPath><clipPath id="i1"><path d="M24,0 L24,24 L0,24 L0,0 L24,0 Z"></path></clipPath></defs><g transform="translate(2.0 2.0)"><g clip-path="url(#i0)"><g transform="translate(-2.0 -2.0)"><g clip-path="url(#i1)"><polygon points="2,2 22,2 22,22 2,22 2,2" stroke="none" fill="#31393E"></polygon></g></g></g></g></svg>