<?xml version="1.0" encoding="UTF-8"?><svg version="1.1" width="24px" height="24px" viewBox="0 0 24.0 24.0" xmlns="http://www.w3.org/2000/svg" xmlns:xlink="http://www.w3.org/1999/xlink"><defs><clipPath id="i0"><path d="M13.5909091,10.1818182 C15.473698,10.1818182 17,11.7081202 17,13.5909091 C17,15.473698 15.473698,17 13.5909091,17 C11.7081202,17 10.1818182,15.473698 10.1818182,13.5909091 C10.1818182,11.7081202 11.7081202,10.1818182 13.5909091,10.1818182 Z M2.45454545,9.22727273 L2.45454545,10.6818182 C2.45454545,12.0122213 3.53323328,13.0909091 4.86363636,13.0909091 L6.565,13.09 L4.88380231,11.4090909 L5.59090909,10.7019841 L8.47983405,13.5909091 L5.59090909,16.4798341 L4.88380231,15.7727273 L6.565,14.09 L4.86363636,14.0909091 C2.98094853,14.0909091 1.45454545,12.564506 1.45454545,10.6818182 L1.45454545,9.22727273 L2.45454545,9.22727273 Z M13.5909091,11.1818182 C12.2604049,11.1818182 11.1818182,12.2604049 11.1818182,13.5909091 C11.1818182,14.9214133 12.2604049,16 13.5909091,16 C14.9214133,16 16,14.9214133 16,13.5909091 C16,12.2604049 14.9214133,11.1818182 13.5909091,11.1818182 Z M11.4090909,0.520165946 L12.1161977,1.22727273 L10.434,2.909 L12.1363636,2.90909091 C14.0190515,2.90909091 15.5454545,4.43549399 15.5454545,6.31818182 L15.5454545,7.77272727 L14.5454545,7.77272727 L14.5454545,6.31818182 C14.5454545,4.98777874 13.4667667,3.90909091 12.1363636,3.90909091 L10.434,3.909 L12.1161977,5.59090909 L11.4090909,6.29801587 L8.52016595,3.40909091 L11.4090909,0.520165946 Z M3.40909091,0 C5.29187983,0 6.81818182,1.52630199 6.81818182,3.40909091 C6.81818182,5.29187983 5.29187983,6.81818182 3.40909091,6.81818182 C1.52630199,6.81818182 0,5.29187983 0,3.40909091 C0,1.52630199 1.52630199,0 3.40909091,0 Z M3.40909091,1 C2.07858674,1 1,2.07858674 1,3.40909091 C1,4.73959508 2.07858674,5.81818182 3.40909091,5.81818182 C4.73959508,5.81818182 5.81818182,4.73959508 5.81818182,3.40909091 C5.81818182,2.07858674 4.73959508,1 3.40909091,1 Z"></path></clipPath><clipPath id="i1"><path d="M24,0 L24,24 L0,24 L0,0 L24,0 Z"></path></clipPath></defs><g transform="translate(3.5 3.5)"><g clip-path="url(#i0)"><g transform="translate(-3.5 -3.5)"><g clip-path="url(#i1)"><polygon points="3.5,3.5 20.5,3.5 20.5,20.5 3.5,20.5 3.5,3.5" stroke="none" fill="#31393E"></polygon></g></g></g></g></svg>