<?xml version="1.0" encoding="UTF-8"?><svg version="1.1" width="58px" height="58px" viewBox="0 0 58.0 58.0" xmlns="http://www.w3.org/2000/svg" xmlns:xlink="http://www.w3.org/1999/xlink"><defs><filter id="i0" x="-23.3125132%" y="-0.0964163735%" filterUnits="userSpaceOnUse" width="124.291655%" height="100.12158%"><feGaussianBlur stdDeviation="0.5" in="SourceAlpha" result="i1"></feGaussianBlur><feOffset dx="0" dy="1" in="i1" result="i2"></feOffset><feColorMatrix values="0 0 0 0.0 0 0 0 0 0.0 0 0 0 0 0.0 0 0 0 0 0.5829087409420289 0" type="matrix" in="i2"></feColorMatrix></filter><filter id="i3" x="-40.9694038%" y="-0.217820227%" filterUnits="userSpaceOnUse" width="148.780759%" height="100.283458%"><feGaussianBlur stdDeviation="1.5" in="SourceAlpha" result="i4"></feGaussianBlur><feOffset dx="0" dy="1" in="i4" result="i5"></feOffset><feColorMatrix values="0 0 0 0.0 0 0 0 0 0.0 0 0 0 0 0.0 0 0 0 0 0.1793478260869565 0" type="matrix" in="i5"></feColorMatrix></filter><clipPath id="i6"><path d="M11.715,15.708 L11.7206152,15.5681661 C11.7988806,14.4724201 12.7234722,13.6077085 13.8523173,13.6077085 C15.0319408,13.6077085 15.9883203,14.5528168 15.9883203,15.7189585 L15.9883203,16.8431801 C15.9909843,15.9563244 16.7028077,15.2387825 17.5808652,15.2387825 C18.4615868,15.2387825 19.1755414,15.9595909 19.1755414,16.8486242 L19.1835334,19.0050609 L19.1835334,23.4137515 C19.1835334,26.8365026 15.9307777,30.3910027 15.9307777,32.6666667 L5.29658397,32.6666667 C5.29658397,30.6283686 0.00106560386,26.5985923 0.00106560386,24.1911793 C0.00106560386,24.1623252 0.00959043472,24.1410929 0.00266400964,24.0327539 L-5.68434189e-14,16.8116039 C-5.68434189e-14,15.6421957 0.953715453,14.6938209 2.13067491,14.6921876 L2.13067491,19.4961252 C2.13067491,19.8565294 2.49031622,20.1477926 2.93467302,20.1477926 C3.37849703,20.1477926 3.73760553,19.8576182 3.73867113,19.4983029 L3.73867113,1.93975857 C3.73867113,0.868889889 4.57197335,0 5.59921547,0 C6.62699039,0 7.45975981,0.868345472 7.45975981,1.93975857 L7.45975981,14.0644746 C7.46775183,14.4188902 7.82313072,14.7041648 8.26269231,14.7041648 C8.70651632,14.7041648 9.06669042,14.4123572 9.06669042,14.051953 L9.06603117,12.3541897 C9.06600019,12.2756289 9.06596833,12.1950277 9.06593567,12.1125371 L9.06502064,9.84729035 C9.06497812,9.7442308 9.06493519,9.64048951 9.06489189,9.53621745 L9.06408396,7.63460363 C9.06403808,7.52939675 9.06399215,7.42456485 9.06394619,7.32025887 L9.06312834,5.53215835 C9.06308402,5.43959798 9.06303998,5.34846929 9.06299629,5.25892322 L9.0620378,3.49097282 C9.06200269,3.43641011 9.06196832,3.38463769 9.06193473,3.33580652 L9.0613624,2.79449361 C9.23079342,2.75148465 9.40501965,2.7215417 9.58777071,2.7215417 C10.7631318,2.7215417 11.7152488,3.66665 11.7152488,4.83279169 L11.715,15.708 Z"></path></clipPath><clipPath id="i7"><path d="M29,0 C45.0162577,0 58,12.9837423 58,29 C58,45.0162577 45.0162577,58 29,58 C12.9837423,58 0,45.0162577 0,29 C0,12.9837423 12.9837423,0 29,0 Z M29,2 C14.0883118,2 2,14.0883118 2,29 C2,43.9116882 14.0883118,56 29,56 C43.9116882,56 56,43.9116882 56,29 C56,14.0883118 43.9116882,2 29,2 Z M22,21 L22,36 L37,36 L37,38 L20,38 L20,21 L22,21 Z M37,21 L37,28 L35,28 L35,23.414 L28.7071068,29.7071068 L27.2928932,28.2928932 L32.584,23 L30,23 L30,21 L37,21 Z"></path></clipPath></defs><g transform="translate(0.0 -171.0)"><g transform="translate(14.0 8.166666666666664)"><path d="M5.59921547,-1.75815361 C6.60678635,-1.75815361 7.52237169,-1.33845534 8.18371518,-0.648954599 C8.57473019,-0.241291792 8.876145,0.261492289 9.05016008,0.823932414 L9.098,0.999 L9.31618012,0.974071896 L9.58777071,0.96338809 C10.6595104,0.96338809 11.628815,1.39537585 12.3306409,2.09184836 C13.0374276,2.79324372 13.4734024,3.76258343 13.4734024,4.83283192 L13.473,11.869 L13.6122457,11.8567523 L13.8523173,11.8495549 C14.9252786,11.8495549 15.8958015,12.2809363 16.5986604,12.9756501 C16.7508604,13.1260864 16.8905376,13.2888438 17.01607,13.4622714 L17.057,13.523 L17.1603081,13.5068751 C17.229198,13.4982123 17.2987332,13.4916507 17.3688479,13.4872549 L17.5808652,13.4806289 C18.5086048,13.4806289 19.3492857,13.8589662 19.9575302,14.4729952 C20.5597999,15.0809925 20.933695,15.9205413 20.933683,16.8421083 L20.9416871,19.0050609 L20.9416871,23.4137515 C20.9416871,25.5605465 19.8894594,27.7761891 18.8744946,29.7561536 C18.3077311,30.8617798 17.6889313,31.8529808 17.6889313,32.6666667 C17.6889313,33.1858981 17.940907,33.7774138 18.2705456,34.4248203 L9.217,34.424 L9.21791342,4931.24763 L7.316,34.424 L2.39301056,34.4248203 C2.96370161,33.8129123 3.45678819,33.2530937 3.52927079,32.7824487 L3.53843036,32.6666667 C3.53843036,31.9322059 2.37070758,30.9578927 1.47294111,29.8991649 C-0.246045461,27.8719795 -1.75708801,25.7136539 -1.75708799,24.1914332 L-1.75815361,16.8116039 C-1.75815361,15.7405811 -1.32238314,14.770212 -0.616001509,14.0675629 C0.0100468042,13.4448227 0.848905479,13.0326731 1.7832533,12.9495505 L1.98,12.936 L1.98051752,1.93975857 C1.98051752,1.00549697 2.32034745,0.155040162 2.87251985,-0.491445316 L3.01491297,-0.648747742 C3.67643636,-1.33843605 4.59216911,-1.75815361 5.59921547,-1.75815361 Z" stroke="none" fill="#000000" filter="url(#i0)"></path><path d="M5.59921547,-1.75815361 C6.60678635,-1.75815361 7.52237169,-1.33845534 8.18371518,-0.648954599 C8.57473019,-0.241291792 8.876145,0.261492289 9.05016008,0.823932414 L9.098,0.999 L9.31618012,0.974071896 L9.58777071,0.96338809 C10.6595104,0.96338809 11.628815,1.39537585 12.3306409,2.09184836 C13.0374276,2.79324372 13.4734024,3.76258343 13.4734024,4.83283192 L13.473,11.869 L13.6122457,11.8567523 L13.8523173,11.8495549 C14.9252786,11.8495549 15.8958015,12.2809363 16.5986604,12.9756501 C16.7508604,13.1260864 16.8905376,13.2888438 17.01607,13.4622714 L17.057,13.523 L17.1603081,13.5068751 C17.229198,13.4982123 17.2987332,13.4916507 17.3688479,13.4872549 L17.5808652,13.4806289 C18.5086048,13.4806289 19.3492857,13.8589662 19.9575302,14.4729952 C20.5597999,15.0809925 20.933695,15.9205413 20.933683,16.8421083 L20.9416871,19.0050609 L20.9416871,23.4137515 C20.9416871,25.5605465 19.8894594,27.7761891 18.8744946,29.7561536 C18.3077311,30.8617798 17.6889313,31.8529808 17.6889313,32.6666667 C17.6889313,33.1858981 17.940907,33.7774138 18.2705456,34.4248203 L9.217,34.424 L9.21791342,4931.24763 L7.316,34.424 L2.39301056,34.4248203 C2.96370161,33.8129123 3.45678819,33.2530937 3.52927079,32.7824487 L3.53843036,32.6666667 C3.53843036,31.9322059 2.37070758,30.9578927 1.47294111,29.8991649 C-0.246045461,27.8719795 -1.75708801,25.7136539 -1.75708799,24.1914332 L-1.75815361,16.8116039 C-1.75815361,15.7405811 -1.32238314,14.770212 -0.616001509,14.0675629 C0.0100468042,13.4448227 0.848905479,13.0326731 1.7832533,12.9495505 L1.98,12.936 L1.98051752,1.93975857 C1.98051752,1.00549697 2.32034745,0.155040162 2.87251985,-0.491445316 L3.01491297,-0.648747742 C3.67643636,-1.33843605 4.59216911,-1.75815361 5.59921547,-1.75815361 Z" stroke="none" fill="#000000" filter="url(#i3)"></path><path d="M19.1755414,16.8486242 C19.1755414,15.9595909 18.4615868,15.2387825 17.5808652,15.2387825 C16.7028077,15.2387825 15.9909843,15.9563244 15.9883203,16.8431801 L15.9883203,15.7189585 C15.9883203,14.5528168 15.0319408,13.6077085 13.8523173,13.6077085 C12.6721611,13.6077085 11.7152488,14.5528168 11.7152488,15.7189585 L11.7152488,4.83279169 C11.7152488,3.66665 10.7631318,2.7215417 9.58777071,2.7215417 C9.40501965,2.7215417 9.23079342,2.75148465 9.0613624,2.79449361 C9.06242801,2.80810404 9.06669042,14.051953 9.06669042,14.051953 C9.06669042,14.4123572 8.70651632,14.7041648 8.26269231,14.7041648 C7.82313072,14.7041648 7.46775183,14.4188902 7.45975981,14.0644746 L7.45975981,1.93975857 C7.45975981,0.868345472 6.62699039,0 5.59921547,0 C4.57197335,0 3.73867113,0.868889889 3.73867113,1.93975857 L3.73867113,19.4983029 C3.73760553,19.8576182 3.37849703,20.1477926 2.93467302,20.1477926 C2.49031622,20.1477926 2.13067491,19.8565294 2.13067491,19.4961252 L2.13067491,14.6921876 C0.953715453,14.6938209 -5.68434189e-14,15.6421957 -5.68434189e-14,16.8116039 L0.00266400964,24.0327539 C0.00959043472,24.1410929 0.00106560386,24.1623252 0.00106560386,24.1911793 C0.00106560386,26.5985923 5.29658397,30.6283686 5.29658397,32.6666667 L15.9307777,32.6666667 C15.9307777,30.3910027 19.1835334,26.8365026 19.1835334,23.4137515 L19.1835334,19.0050609 L19.1755414,16.8486242 Z" stroke="#000000" stroke-width="3.51630722" fill="none" stroke-miterlimit="5"></path><g clip-path="url(#i6)"><polygon points="-5.68434189e-14,0 19.1835334,0 19.1835334,32.6666667 -5.68434189e-14,32.6666667 -5.68434189e-14,0" stroke="none" fill="#FEFFFE"></polygon></g></g></g><g clip-path="url(#i7)"><polygon points="0,0 58,0 58,58 0,58 0,0" stroke="none" fill="#007CD6"></polygon></g></svg>