<?xml version="1.0" encoding="UTF-8"?><svg version="1.1" width="48px" height="49px" viewBox="0 0 48.0 49.0" xmlns="http://www.w3.org/2000/svg" xmlns:xlink="http://www.w3.org/1999/xlink"><rect x="0px" y="0px" width="48px" height="49px" fill="#000000"></rect><defs><clipPath id="i0"><path d="M1.70710678,0.292893219 L12,10.585 L22.2928932,0.292893219 C22.6834175,-0.0976310729 23.3165825,-0.0976310729 23.7071068,0.292893219 C24.0976311,0.683417511 24.0976311,1.31658249 23.7071068,1.70710678 L13.415,12 L23.7071068,22.2928932 C24.0976311,22.6834175 24.0976311,23.3165825 23.7071068,23.7071068 C23.3165825,24.0976311 22.6834175,24.0976311 22.2928932,23.7071068 L12,13.415 L1.70710678,23.7071068 C1.31658249,24.0976311 0.683417511,24.0976311 0.292893219,23.7071068 C-0.0976310729,23.3165825 -0.0976310729,22.6834175 0.292893219,22.2928932 L10.585,12 L0.292893219,1.70710678 C-0.0976310729,1.31658249 -0.0976310729,0.683417511 0.292893219,0.292893219 C0.683417511,-0.0976310729 1.31658249,-0.0976310729 1.70710678,0.292893219 Z"></path></clipPath><clipPath id="i1"><path d="M48,0 L48,49 L0,49 L0,0 L48,0 Z"></path></clipPath></defs><rect x="0px" y="0px" width="48px" height="49px" fill="#000000"></rect><g transform="translate(11.999999999999998 11.999999999999998)"><g clip-path="url(#i0)"><polygon points="0,0 24,0 24,24 0,24 0,0" stroke="none" fill="#FEFFFE"></polygon><g transform="translate(-11.999999999999998 -11.999999999999998)"><g clip-path="url(#i1)"><polygon points="12,12 36,12 36,36 12,36 12,12" stroke="none" fill="#F3F7FD"></polygon></g></g></g></g></svg>