<?xml version="1.0" encoding="UTF-8"?><svg version="1.1" width="24px" height="24px" viewBox="0 0 24.0 24.0" xmlns="http://www.w3.org/2000/svg" xmlns:xlink="http://www.w3.org/1999/xlink"><defs><clipPath id="i0"><path d="M12.4583333,0 C12.7574876,0 13,0.239847455 13,0.535714286 L13,14.4642857 C13,14.7601525 12.7574876,15 12.4583333,15 L0.541666667,15 C0.242512427,15 0,14.7601525 0,14.4642857 L0,0.535714286 C0,0.239847455 0.242512427,0 0.541666667,0 L12.4583333,0 Z M12,1 L1,1 L1,14 L12,14 L12,1 Z M5.5,10 C5.77614237,10 6,10.2238576 6,10.5 C6,10.7761424 5.77614237,11 5.5,11 L3.5,11 C3.22385763,11 3,10.7761424 3,10.5 C3,10.2238576 3.22385763,10 3.5,10 L5.5,10 Z M9.5,7 C9.77614237,7 10,7.22385763 10,7.5 C10,7.77614237 9.77614237,8 9.5,8 L3.5,8 C3.22385763,8 3,7.77614237 3,7.5 C3,7.22385763 3.22385763,7 3.5,7 L9.5,7 Z M9.5,4 C9.77614237,4 10,4.22385763 10,4.5 C10,4.77614237 9.77614237,5 9.5,5 L3.5,5 C3.22385763,5 3,4.77614237 3,4.5 C3,4.22385763 3.22385763,4 3.5,4 L9.5,4 Z"></path></clipPath><clipPath id="i1"><path d="M16,0 L16,17 L0,17 L0,0 L16,0 Z"></path></clipPath></defs><g transform="translate(5.0 5.0)"><g clip-path="url(#i0)"><g transform="translate(-5.0 -5.0)"><g transform="translate(4.0 3.0)"><g clip-path="url(#i1)"><polygon points="1,2 14,2 14,17 1,17 1,2" stroke="none" fill="#31393E"></polygon></g></g></g></g></g></svg>