<?xml version="1.0" encoding="UTF-8"?><svg version="1.1" width="24px" height="24px" viewBox="0 0 24.0 24.0" xmlns="http://www.w3.org/2000/svg" xmlns:xlink="http://www.w3.org/1999/xlink"><defs><clipPath id="i0"><path d="M4.105,12 C4.93342712,12 5.605,12.6715729 5.605,13.5 C5.605,14.3284271 4.93342712,15 4.105,15 C3.27657288,15 2.605,14.3284271 2.605,13.5 C2.605,12.6715729 3.27657288,12 4.105,12 Z M4.105,0 C6.311,0 8.105,1.794 8.105,4 C8.105,5.69 7.073,6.431 6.319,6.972 C5.587,7.497 5.105,7.843 5.105,9 L5.105,10 L3.105,10 L3.105,9 C3.105,6.817 4.289,5.967 5.153,5.347 C5.86,4.839 6.105,4.632 6.105,4 C6.105,2.897 5.208,2 4.105,2 C3.259,2 2.501,2.536 2.218,3.333 L1.885,4.276 L0,3.609 L0.334,2.667 C0.897,1.072 2.414,0 4.105,0 Z"></path></clipPath><clipPath id="i1"><path d="M24,0 L24,24 L0,24 L0,0 L24,0 Z"></path></clipPath></defs><g transform="translate(8.0 4.0)"><g clip-path="url(#i0)"><g transform="translate(-8.0 -4.0)"><g clip-path="url(#i1)"><polygon points="8,4 16.105,4 16.105,19 8,19 8,4" stroke="none" fill="#31393E"></polygon></g></g></g></g></svg>