<?xml version="1.0" encoding="UTF-8"?><svg version="1.1" width="24px" height="24px" viewBox="0 0 24.0 24.0" xmlns="http://www.w3.org/2000/svg" xmlns:xlink="http://www.w3.org/1999/xlink"><defs><clipPath id="i0"><path d="M11.649776,10.4125232 L13.7436557,12.5064029 C14.0857814,12.8485287 14.0857814,13.4015299 13.7436557,13.7436557 C13.5730303,13.9142811 13.3490298,14.0000312 13.1250293,14.0000312 C12.9010288,14.0000312 12.6770283,13.9142811 12.5064029,13.7436557 L10.4125232,11.649776 C10.8753993,11.2901502 11.2901502,10.8753993 11.649776,10.4125232 Z M6.12501367,0 C9.50252121,0 12.2500273,2.74750613 12.2500273,6.12501367 C12.2500273,9.50252121 9.50252121,12.2500273 6.12501367,12.2500273 C2.74750613,12.2500273 0,9.50252121 0,6.12501367 C0,2.74750613 2.74750613,0 6.12501367,0 Z M6.12501367,1.75000391 C3.71263329,1.75000391 1.75000391,3.71263329 1.75000391,6.12501367 C1.75000391,8.53739406 3.71263329,10.5000234 6.12501367,10.5000234 C8.53739406,10.5000234 10.5000234,8.53739406 10.5000234,6.12501367 C10.5000234,3.71263329 8.53739406,1.75000391 6.12501367,1.75000391 Z"></path></clipPath><clipPath id="i1"><path d="M24,0 L24,24 L0,24 L0,0 L24,0 Z"></path></clipPath></defs><g transform="translate(5.000000000000001 5.0)"><g clip-path="url(#i0)"><g transform="translate(-5.000000000000001 -5.0)"><g clip-path="url(#i1)"><polygon points="5,5 19.00025,5 19.00025,19.0000312 5,19.0000312 5,5" stroke="none" fill="#31393E"></polygon></g></g></g></g></svg>