<?xml version="1.0" encoding="UTF-8"?><svg version="1.1" width="24px" height="24px" viewBox="0 0 24.0 24.0" xmlns="http://www.w3.org/2000/svg" xmlns:xlink="http://www.w3.org/1999/xlink"><defs><clipPath id="i0"><path d="M13.4862977,0 C14.2960832,0 14.9998471,0.560369664 14.9998471,1.3258989 L14.9998471,9.39240116 C14.9998471,10.1579304 14.2960832,10.7183001 13.4862977,10.7183001 L1.51370225,10.7183001 C0.703916777,10.7183001 0.00015285598,10.1579304 0.00015285598,9.39240116 L0.00015285598,1.3258989 C0.00015285598,0.560369664 0.703916777,0 1.51370225,0 L13.4862977,0 Z M13.814,4.054 L7.73162749,6.63790437 C7.58360625,6.70076379 7.41639375,6.70076379 7.26837251,6.63790437 L1.185,4.054 L1.18531389,9.39240116 C1.18531389,9.43645542 1.30673809,9.53313904 1.51370225,9.53313904 L13.4862977,9.53313904 C13.6932619,9.53313904 13.8146861,9.43645542 13.8146861,9.39240116 L13.814,4.054 Z M13.4862977,1.18516103 L1.51370225,1.18516103 C1.30673809,1.18516103 1.18531389,1.28184464 1.18531389,1.3258989 L1.185,2.766 L7.5,5.44866841 L13.814,2.766 L13.8146861,1.3258989 C13.8146861,1.28184464 13.6932619,1.18516103 13.4862977,1.18516103 Z"></path></clipPath><clipPath id="i1"><path d="M24,0 L24,24 L0,24 L0,0 L24,0 Z"></path></clipPath></defs><g transform="translate(4.765431537707627 6.7140624999999545)"><g clip-path="url(#i0)"><g transform="translate(-4.765431537707627 -6.7140624999999545)"><g clip-path="url(#i1)"><polygon points="4.76543154,6.7140625 19.7654315,6.7140625 19.7654315,17.4323626 4.76543154,17.4323626 4.76543154,6.7140625" stroke="none" fill="#31393E"></polygon></g></g></g></g></svg>