<?xml version="1.0" encoding="UTF-8"?><svg version="1.1" width="24px" height="24px" viewBox="0 0 24.0 24.0" xmlns="http://www.w3.org/2000/svg" xmlns:xlink="http://www.w3.org/1999/xlink"><defs><clipPath id="i0"><path d="M4.666,2.251 L4.66666667,2.33333333 C4.66666667,2.65549944 4.40549944,2.91666667 4.08333333,2.91666667 C3.76116723,2.91666667 3.5,2.65549944 3.5,2.33333333 L3.5,2.251 L4.666,2.251 Z M12.857,4.666 L1.142,4.666 L1.14285714,11.4767442 C1.14285714,11.6263571 1.27101986,11.748062 1.42857143,11.748062 L12.5714286,11.748062 C12.7289801,11.748062 12.8571429,11.6263571 12.8571429,11.4767442 L12.857,4.666 Z M4.08333333,0 C4.40549944,0 4.66666667,0.261167229 4.66666667,0.583333333 L4.666,1.166 L3.5,1.166 L3.5,0.583333333 C3.5,0.261167229 3.76116723,0 4.08333333,0 Z M4.666,2.251 L4.666,1.166 L9.333,1.166 L9.33333333,0.583333333 C9.33333333,0.261167229 9.59450056,0 9.91666667,0 C10.2388328,0 10.5,0.261167229 10.5,0.583333333 L10.499,1.166 L12.5714286,1.16666667 C13.3601627,1.16666667 14,1.77426409 14,2.52325581 L14,11.4767442 C14,12.2257359 13.3601627,12.8333333 12.5714286,12.8333333 L1.42857143,12.8333333 C0.639837286,12.8333333 0,12.2257359 0,11.4767442 L0,2.52325581 C0,1.77426409 0.639837286,1.16666667 1.42857143,1.16666667 L3.5,1.166 L3.5,2.251 L1.42857143,2.25193798 C1.27101986,2.25193798 1.14285714,2.37364289 1.14285714,2.52325581 L1.142,3.5 L12.857,3.5 L12.8571429,2.52325581 C12.8571429,2.37364289 12.7289801,2.25193798 12.5714286,2.25193798 L10.499,2.251 L10.5,2.33333333 C10.5,2.65549944 10.2388328,2.91666667 9.91666667,2.91666667 C9.59450056,2.91666667 9.33333333,2.65549944 9.33333333,2.33333333 L9.333,2.251 L4.666,2.251 Z"></path></clipPath><clipPath id="i1"><path d="M24,0 L24,24 L0,24 L0,0 L24,0 Z"></path></clipPath></defs><g transform="translate(5.0 5.999999999999999)"><g clip-path="url(#i0)"><g transform="translate(-5.0 -5.999999999999999)"><g clip-path="url(#i1)"><polygon points="5,6 19,6 19,18.8333333 5,18.8333333 5,6" stroke="none" fill="#31393E"></polygon></g></g></g></g></svg>