<?xml version="1.0" encoding="UTF-8"?><svg version="1.1" width="24px" height="24px" viewBox="0 0 24.0 24.0" xmlns="http://www.w3.org/2000/svg" xmlns:xlink="http://www.w3.org/1999/xlink"><defs><clipPath id="i0"><path d="M12.1837146,0 L12.1837146,3.53720746 L11.0046454,3.53720746 L11.0046454,1.17906915 L1.17906915,1.17906915 L1.17906915,17.2930142 L11.0046454,17.2930142 L11.0046454,14.9348759 L12.1837146,14.9348759 L12.1837146,18.4720834 L0,18.4720834 L0,0 L12.1837146,0 Z M10.0220878,5.2581295 L14,9.2360417 L10.0220878,13.2139539 L9.18836001,12.3802261 L11.743,9.825 L3.73371898,9.82557627 L3.73371898,8.64650712 L11.742,8.646 L9.18836001,6.09185729 L10.0220878,5.2581295 Z"></path></clipPath><clipPath id="i1"><path d="M24,0 L24,24 L0,24 L0,0 L24,0 Z"></path></clipPath></defs><g transform="translate(5.0 3.0)"><g clip-path="url(#i0)"><g transform="translate(-5.0 -3.0)"><g clip-path="url(#i1)"><polygon points="5,3 19,3 19,21.4720834 5,21.4720834 5,3" stroke="none" fill="#31393E"></polygon></g></g></g></g></svg>