<?xml version="1.0" encoding="UTF-8"?><svg version="1.1" width="24px" height="24px" viewBox="0 0 24.0 24.0" xmlns="http://www.w3.org/2000/svg" xmlns:xlink="http://www.w3.org/1999/xlink"><defs><clipPath id="i0"><path d="M7.3337817,0 C11.0095345,0 14,2.55842716 14,5.70370187 C14,8.84897657 11.0095345,11.4074074 7.3337817,11.4074074 L0.667563408,11.4074074 C0.402064428,11.4082612 0.161447783,11.258965 0.0553951111,11.0275696 C-0.0506575604,10.7961743 -0.0018395205,10.5269869 0.179596229,10.3427127 L1.71682617,8.768491 C1.02820582,7.85336373 0.667563408,6.80324884 0.667563408,5.70370187 C0.667563408,2.55842716 3.65802894,0 7.3337817,0 Z M7.3337817,1.2674893 C4.39331281,1.2674893 2.00080707,3.25808126 2.00080707,5.70370187 C2.00080707,6.6777674 2.37944827,7.60493582 3.09540011,8.38570923 C3.31965488,8.63012395 3.31361361,8.99605581 3.08140105,9.23365958 L2.19612726,10.1399144 L7.3337817,10.1399144 C10.2742506,10.1399144 12.6667563,8.14995622 12.6667563,5.70370187 C12.6667563,3.25808126 10.2742506,1.2674893 7.3337817,1.2674893 Z"></path></clipPath><clipPath id="i1"><path d="M24,0 L24,24 L0,24 L0,0 L24,0 Z"></path></clipPath></defs><g transform="translate(5.0 6.000000000000001)"><g clip-path="url(#i0)"><g transform="translate(-5.0 -6.000000000000001)"><g clip-path="url(#i1)"><polygon points="5,6 19,6 19,17.407411 5,17.407411 5,6" stroke="none" fill="#31393E"></polygon></g></g></g></g></svg>