<?xml version="1.0" encoding="UTF-8"?><svg version="1.1" width="24px" height="24px" viewBox="0 0 24.0 24.0" xmlns="http://www.w3.org/2000/svg" xmlns:xlink="http://www.w3.org/1999/xlink"><defs><clipPath id="i0"><path d="M10.7972222,1.76470588 C11.0564892,1.76470588 11.2666667,1.97633599 11.2666667,2.23739496 L11.2666667,14.5273109 C11.2666667,14.7883699 11.0564892,15 10.7972222,15 L0.469444444,15 C0.210177437,15 0,14.7883699 0,14.5273109 L0,2.23739496 C0,1.97633599 0.210177437,1.76470588 0.469444444,1.76470588 L10.7972222,1.76470588 Z M10.4,2.64705882 L0.866666667,2.64705882 L0.866666667,14.1176471 L10.4,14.1176471 L10.4,2.64705882 Z M12.5493333,0 C12.7982297,0 13,0.204332518 13,0.456389452 L13,12.7789047 C13,13.0309616 12.7982297,13.2352941 12.5493333,13.2352941 C12.300437,13.2352941 12.0986667,13.0309616 12.0986667,12.7789047 L12.0986667,0.912778905 L2.184,0.912778905 C1.93510367,0.912778905 1.73333333,0.708446387 1.73333333,0.456389452 C1.73333333,0.204332518 1.93510367,0 2.184,0 L12.5493333,0 Z M4.76666667,10.5882353 C5.00599006,10.5882353 5.2,10.7857567 5.2,11.0294118 C5.2,11.2730668 5.00599006,11.4705882 4.76666667,11.4705882 L3.03333333,11.4705882 C2.79400994,11.4705882 2.6,11.2730668 2.6,11.0294118 C2.6,10.7857567 2.79400994,10.5882353 3.03333333,10.5882353 L4.76666667,10.5882353 Z M9.03809524,7.94117647 C9.31160769,7.94117647 9.53333333,8.1386979 9.53333333,8.38235294 C9.53333333,8.62600798 9.31160769,8.82352941 9.03809524,8.82352941 L3.0952381,8.82352941 C2.82172565,8.82352941 2.6,8.62600798 2.6,8.38235294 C2.6,8.1386979 2.82172565,7.94117647 3.0952381,7.94117647 L9.03809524,7.94117647 Z M9.03809524,5.29411765 C9.31160769,5.29411765 9.53333333,5.49163908 9.53333333,5.73529412 C9.53333333,5.97894915 9.31160769,6.17647059 9.03809524,6.17647059 L3.0952381,6.17647059 C2.82172565,6.17647059 2.6,5.97894915 2.6,5.73529412 C2.6,5.49163908 2.82172565,5.29411765 3.0952381,5.29411765 L9.03809524,5.29411765 Z"></path></clipPath><clipPath id="i1"><path d="M24,0 L24,24 L0,24 L0,0 L24,0 Z"></path></clipPath></defs><g transform="translate(6.0 5.0)"><g clip-path="url(#i0)"><g transform="translate(-6.0 -5.0)"><g clip-path="url(#i1)"><polygon points="6,5 19,5 19,20 6,20 6,5" stroke="none" fill="#31393E"></polygon></g></g></g></g></svg>