<?xml version="1.0" encoding="UTF-8"?><svg version="1.1" width="24px" height="24px" viewBox="0 0 24.0 24.0" xmlns="http://www.w3.org/2000/svg" xmlns:xlink="http://www.w3.org/1999/xlink"><defs><clipPath id="i0"><path d="M12.33,0 C13.0716945,0 13.675,0.598517404 13.675,1.33829365 L13.675,8.88293651 C13.675,9.62271275 13.0716945,10.2212302 12.33,10.2212302 L1.345,10.2212302 C0.603305543,10.2212302 0,9.62271275 0,8.88293651 L0,1.33829365 C0,0.598517404 0.603305543,0 1.345,0 L12.33,0 Z M12.675,4.353 L1,4.353 L1,8.88293651 C1,9.06863645 1.15381446,9.22123016 1.345,9.22123016 L12.33,9.22123016 C12.5211855,9.22123016 12.675,9.06863645 12.675,8.88293651 L12.675,4.353 Z M5.57,6.70634921 C5.84614237,6.70634921 6.07,6.93020683 6.07,7.20634921 C6.07,7.48249158 5.84614237,7.70634921 5.57,7.70634921 L3.035,7.70634921 C2.75885763,7.70634921 2.535,7.48249158 2.535,7.20634921 C2.535,6.93020683 2.75885763,6.70634921 3.035,6.70634921 L5.57,6.70634921 Z M10.64,6.70634921 C10.9161424,6.70634921 11.14,6.93020683 11.14,7.20634921 C11.14,7.48249158 10.9161424,7.70634921 10.64,7.70634921 L9.795,7.70634921 C9.51885763,7.70634921 9.295,7.48249158 9.295,7.20634921 C9.295,6.93020683 9.51885763,6.70634921 9.795,6.70634921 L10.64,6.70634921 Z M12.33,1 L1.345,1 C1.15381446,1 1,1.15259371 1,1.33829365 L1,3.353 L12.675,3.353 L12.675,1.33829365 C12.675,1.15259371 12.5211855,1 12.33,1 Z"></path></clipPath><clipPath id="i1"><path d="M24,0 L24,24 L0,24 L0,0 L24,0 Z"></path></clipPath></defs><g transform="translate(5.5 6.499999999999999)"><g clip-path="url(#i0)"><g transform="translate(-5.5 -6.499999999999999)"><g clip-path="url(#i1)"><polygon points="5.5,6.5 19.175,6.5 19.175,16.7212302 5.5,16.7212302 5.5,6.5" stroke="none" fill="#31393E"></polygon></g></g></g></g></svg>