<?xml version="1.0" encoding="UTF-8"?><svg version="1.1" width="24px" height="24px" viewBox="0 0 24.0 24.0" xmlns="http://www.w3.org/2000/svg" xmlns:xlink="http://www.w3.org/1999/xlink"><defs><clipPath id="i0"><path d="M0.976744186,9.27906977 L0.976744186,13.1860465 L13.0232558,13.1860465 L13.0232558,9.27906977 L14,9.27906977 L14,14.1627907 L0,14.1627907 L0,9.27906977 L0.976744186,9.27906977 Z M7.48837209,0 L7.488,8.588 L10.9069767,5.16980268 L11.5976392,5.86046512 L7,10.4581043 L2.40236082,5.86046512 L3.09302326,5.16980268 L6.511,8.587 L6.51162791,0 L7.48837209,0 Z"></path></clipPath><clipPath id="i1"><path d="M24,0 L24,24 L0,24 L0,0 L24,0 Z"></path></clipPath></defs><g transform="translate(5.0 4.0)"><g clip-path="url(#i0)"><g transform="translate(-5.0 -4.0)"><g clip-path="url(#i1)"><polygon points="5,4 19,4 19,18.1627907 5,18.1627907 5,4" stroke="none" fill="#31393E"></polygon></g></g></g></g></svg>