<?xml version="1.0" encoding="UTF-8"?><svg version="1.1" width="24px" height="24px" viewBox="0 0 24.0 24.0" xmlns="http://www.w3.org/2000/svg" xmlns:xlink="http://www.w3.org/1999/xlink"><defs><clipPath id="i0"><path d="M12.0914259,0.528571345 L13.4714287,1.90857406 C14.1761904,2.61333585 14.1761904,3.75582089 13.4714287,4.46058268 L4.71841361,13.2135977 L0,14 L0.786402268,9.28158639 L9.53941732,0.528571345 C10.2441791,-0.176190448 11.3866641,-0.176190448 12.0914259,0.528571345 Z M1.738,10.067 L1.29931158,12.7006884 L3.932,12.261 L1.738,10.067 Z M8.673,2.904 L2.379,9.198 L4.801,11.62 L11.095,5.326 L8.673,2.904 Z M11.85,4.571 L11.095,5.326 L11.5219411,5.75334336 L12.2771506,4.99813385 L11.85,4.571 Z M10.2946268,1.28378086 L9.428,2.149 L11.85,4.571 L12.7162191,3.70537317 C13.0038902,3.41770207 13.0038902,2.95145467 12.7162191,2.66378357 L11.3362164,1.28378086 C11.0485453,0.996109763 10.5822979,0.996109763 10.2946268,1.28378086 Z M8.85946248,1.58044573 L8.10425297,2.33565524 L8.673,2.904 L9.428,2.149 L8.85946248,1.58044573 Z"></path></clipPath><clipPath id="i1"><path d="M24,0 L24,24 L0,24 L0,0 L24,0 Z"></path></clipPath></defs><g transform="translate(5.0 5.0)"><g clip-path="url(#i0)"><g transform="translate(-5.0 -5.0)"><g clip-path="url(#i1)"><polygon points="5,5 19,5 19,19 5,19 5,5" stroke="none" fill="#31393E"></polygon></g></g></g></g></svg>