<?xml version="1.0" encoding="UTF-8"?><svg version="1.1" width="24px" height="24px" viewBox="0 0 24.0 24.0" xmlns="http://www.w3.org/2000/svg" xmlns:xlink="http://www.w3.org/1999/xlink"><defs><clipPath id="i0"><path d="M8,0 C12.418278,0 16,3.581722 16,8 C16,12.418278 12.418278,16 8,16 C3.581722,16 0,12.418278 0,8 C0,3.581722 3.581722,0 8,0 Z M8,1.0212766 C4.14575749,1.0212766 1.0212766,4.14575749 1.0212766,8 C1.0212766,11.8542425 4.14575749,14.9787234 8,14.9787234 C11.8542425,14.9787234 14.9787234,11.8542425 14.9787234,8 C14.9787234,4.14575749 11.8542425,1.0212766 8,1.0212766 Z M10.7234043,4.55444414 L11.4455559,5.27659574 L8.722,8 L11.4455559,10.7234043 L10.7234043,11.4455559 L8,8.722 L5.27659574,11.4455559 L4.55444414,10.7234043 L7.278,8 L4.55444414,5.27659574 L5.27659574,4.55444414 L8,7.278 L10.7234043,4.55444414 Z"></path></clipPath><clipPath id="i1"><path d="M24,0 L24,24 L0,24 L0,0 L24,0 Z"></path></clipPath></defs><g transform="translate(4.0 4.0)"><g clip-path="url(#i0)"><g transform="translate(-4.0 -4.0)"><g clip-path="url(#i1)"><polygon points="4,4 20,4 20,20 4,20 4,4" stroke="none" fill="#31393E"></polygon></g></g></g></g></svg>