<?xml version="1.0" encoding="UTF-8"?><svg version="1.1" width="24px" height="24px" viewBox="0 0 24.0 24.0" xmlns="http://www.w3.org/2000/svg" xmlns:xlink="http://www.w3.org/1999/xlink"><defs><clipPath id="i0"><path d="M11.4857143,0 C11.7697464,0 12,0.230253557 12,0.514285714 L12,14.9142857 C12,15.318224 11.5556824,15.564486 11.2131434,15.3503991 L6,12.0921845 L0.786856598,15.3503991 C0.444317623,15.564486 0,15.318224 0,14.9142857 L0,0.514285714 C0,0.230253557 0.230253557,0 0.514285714,0 L11.4857143,0 Z M10.9714286,1.02857143 L1.02857143,1.02857143 L1.02857143,13.9863869 L5.72742912,11.0496009 C5.89419669,10.9453711 6.10580331,10.9453711 6.27257088,11.0496009 L10.9714286,13.9863869 L10.9714286,1.02857143 Z"></path></clipPath><clipPath id="i1"><path d="M24,0 L24,24 L0,24 L0,0 L24,0 Z"></path></clipPath></defs><g transform="translate(6.25 4.249999999999999)"><g clip-path="url(#i0)"><g transform="translate(-6.25 -4.249999999999999)"><g clip-path="url(#i1)"><polygon points="6.25,4.25 18.25,4.25 18.25,19.6793937 6.25,19.6793937 6.25,4.25" stroke="none" fill="#31393E"></polygon></g></g></g></g></svg>