<?xml version="1.0" encoding="UTF-8"?><svg version="1.1" width="24px" height="24px" viewBox="0 0 24.0 24.0" xmlns="http://www.w3.org/2000/svg" xmlns:xlink="http://www.w3.org/1999/xlink"><defs><clipPath id="i0"><path d="M1.796,11.419 L1.77839827,11.5245626 C1.76420435,11.6247916 1.75686275,11.7272247 1.75686275,11.8313725 C1.75686275,11.9355204 1.76420435,12.0379535 1.77839827,12.1381825 L1.796,12.243 L0,12.2431373 L0,11.4196078 L1.796,11.419 Z M14,11.4196078 L14,12.2431373 L7.02745098,12.2431373 L7.02745098,11.4196078 L14,11.4196078 Z M8.75686275,4.83137255 C9.95456261,4.83137255 10.9254902,5.80230013 10.9254902,7 C10.9254902,8.19769987 9.95456261,9.16862745 8.75686275,9.16862745 C7.7153846,9.16862745 6.84537888,8.43446671 6.63613978,7.45543941 L6.628,7.411 L0,7.41176471 L0,6.58823529 L6.628,6.588 L6.63613978,6.54456059 C6.84537888,5.56553329 7.7153846,4.83137255 8.75686275,4.83137255 Z M8.75686275,5.65490196 C8.01398561,5.65490196 7.41176471,6.25712287 7.41176471,7 C7.41176471,7.74287713 8.01398561,8.34509804 8.75686275,8.34509804 C9.49973988,8.34509804 10.1019608,7.74287713 10.1019608,7 C10.1019608,6.25712287 9.49973988,5.65490196 8.75686275,5.65490196 Z M14,6.58823529 L14,7.41176471 L11.8588235,7.41176471 L11.8588235,6.58823529 L14,6.58823529 Z M1.796,1.756 L1.77839827,1.86181747 C1.76420435,1.96204655 1.75686275,2.06447964 1.75686275,2.16862745 C1.75686275,2.27277527 1.76420435,2.37520836 1.77839827,2.47543743 L1.796,2.58 L0,2.58039216 L0,1.75686275 L1.796,1.756 Z M14,1.75686275 L14,2.58039216 L7.02745098,2.58039216 L7.02745098,1.75686275 L14,1.75686275 Z M1.796,11.419 L1.80476723,11.3759331 C2.01400633,10.3969058 2.88401205,9.6627451 3.9254902,9.6627451 C5.12319007,9.6627451 6.09411765,10.6336727 6.09411765,11.8313725 C6.09411765,13.0290724 5.12319007,14 3.9254902,14 C2.88401205,14 2.01400633,13.2658393 1.80476723,12.286812 L1.796,12.243 L2.58039216,12.2431373 L2.58039216,11.4196078 L1.796,11.419 Z M1.796,1.756 L1.80476723,1.71318804 C2.01400633,0.734160742 2.88401205,0 3.9254902,0 C5.12319007,0 6.09411765,0.970927582 6.09411765,2.16862745 C6.09411765,3.36632732 5.12319007,4.3372549 3.9254902,4.3372549 C2.88401205,4.3372549 2.01400633,3.60309416 1.80476723,2.62406686 L1.796,2.58 L2.58039216,2.58039216 L2.58039216,1.75686275 L1.796,1.756 Z"></path></clipPath><clipPath id="i1"><path d="M24.3076923,0 L24.3076923,24.3076923 L0,24.3076923 L0,0 L24.3076923,0 Z"></path></clipPath></defs><g transform="translate(5.0 5.000000000000001)"><g clip-path="url(#i0)"><g transform="translate(-5.0 -5.000000000000001)"><g transform=""><g clip-path="url(#i1)"><polygon points="5,5 19,5 19,19 5,19 5,5" stroke="none" fill="#31393E"></polygon></g></g></g></g></g></svg>