<?xml version="1.0" encoding="UTF-8"?><svg version="1.1" width="24px" height="24px" viewBox="0 0 24.0 24.0" xmlns="http://www.w3.org/2000/svg" xmlns:xlink="http://www.w3.org/1999/xlink"><defs><clipPath id="i0"><path d="M12.25,11.6666667 C12.5721661,11.6666667 12.8333333,11.9278339 12.8333333,12.25 C12.8333333,12.5721661 12.5721661,12.8333333 12.25,12.8333333 L0.583333333,12.8333333 C0.261167229,12.8333333 0,12.5721661 0,12.25 C0,11.9278339 0.261167229,11.6666667 0.583333333,11.6666667 L12.25,11.6666667 Z M8.77359007,0.170854378 L11.1069234,2.50418771 C11.3347292,2.73199355 11.3347292,3.10133979 11.1069234,3.32914562 L10.741,3.694 L11.8847012,4.83752104 C12.112507,5.06532688 12.112507,5.43467312 11.8847012,5.66247896 L8.77359007,8.77359007 C8.54578423,9.0013959 8.17643799,9.0013959 7.94863216,8.77359007 C7.72082632,8.54578423 7.72082632,8.17643799 7.94863216,7.94863216 L10.6472643,5.25 L9.916,4.519 L4.88470118,9.55136784 C4.80994186,9.62612716 4.71627027,9.67916311 4.61370134,9.70480535 L1.50259023,10.4825831 C1.07536829,10.5893886 0.688389168,10.2024095 0.795194653,9.77518755 L1.57297243,6.66407644 C1.59861466,6.56150751 1.65165062,6.46783591 1.72640993,6.3930766 L7.94863216,0.170854378 C8.17643799,-0.0569514592 8.54578423,-0.0569514592 8.77359007,0.170854378 Z M8.36111111,1.40829124 L2.6656179,7.10378445 L2.16282609,9.11495168 L4.17399332,8.61215988 L9.86948653,2.91666667 L8.36111111,1.40829124 Z"></path></clipPath><clipPath id="i1"><path d="M24,0 L24,26 L0,26 L0,0 L24,0 Z"></path></clipPath></defs><g transform="translate(5.583333333333939 5.5833333333333135)"><g clip-path="url(#i0)"><g transform="translate(-5.583333333333939 -5.5833333333333135)"><g transform="translate(0.0 -1.0)"><g clip-path="url(#i1)"><polygon points="5.58333333,6.58333333 18.4166667,6.58333333 18.4166667,19.4166667 5.58333333,19.4166667 5.58333333,6.58333333" stroke="none" fill="#31393E"></polygon></g></g></g></g></g></svg>