<?xml version="1.0" encoding="UTF-8"?><svg version="1.1" width="24px" height="24px" viewBox="0 0 24.0 24.0" xmlns="http://www.w3.org/2000/svg" xmlns:xlink="http://www.w3.org/1999/xlink"><defs><clipPath id="i0"><path d="M13.5625,13.125 C13.8041246,13.125 14,13.3208754 14,13.5625 C14,13.8041246 13.8041246,14 13.5625,14 L0.4375,14 C0.195875422,14 0,13.8041246 0,13.5625 C0,13.3208754 0.195875422,13.125 0.4375,13.125 L13.5625,13.125 Z M6.87185922,0.128140783 L12.1218592,5.37814078 C12.2927136,5.54899516 12.2927136,5.82600484 12.1218592,5.99685922 C11.9510048,6.16771359 11.6739952,6.16771359 11.5031408,5.99685922 L11.097,5.59 L9.59370855,9.34998342 C9.54002443,9.48419372 9.42351385,9.58322478 9.28240708,9.61458184 L1.40740708,11.3645818 C1.09481398,11.434047 0.815953029,11.155186 0.885418161,10.8425929 L2.63541816,2.96759292 C2.66677522,2.82648615 2.76580628,2.70997557 2.90001658,2.65629145 L6.659,1.152 L6.25314078,0.746859217 C6.08228641,0.576004839 6.08228641,0.298995161 6.25314078,0.128140783 C6.42399516,-0.0427135944 6.70100484,-0.0427135944 6.87185922,0.128140783 Z M7.332,1.825 L3.43946913,3.38291427 L1.88872153,10.3612785 L8.86708573,8.81053087 L10.424,4.917 L7.332,1.825 Z M5.25,6.125 C5.73324916,6.125 6.125,6.51675084 6.125,7 C6.125,7.48324916 5.73324916,7.875 5.25,7.875 C4.76675084,7.875 4.375,7.48324916 4.375,7 C4.375,6.51675084 4.76675084,6.125 5.25,6.125 Z"></path></clipPath><clipPath id="i1"><path d="M24,0 L24,26 L0,26 L0,0 L24,0 Z"></path></clipPath></defs><g transform="translate(5.000000000000027 5.0)"><g clip-path="url(#i0)"><g transform="translate(-5.000000000000027 -5.0)"><g transform="translate(0.0 -1.0)"><g clip-path="url(#i1)"><polygon points="5,6 19,6 19,20 5,20 5,6" stroke="none" fill="#31393E"></polygon></g></g></g></g></g></svg>