<?xml version="1.0" encoding="UTF-8"?><svg version="1.1" width="24px" height="24px" viewBox="0 0 24.0 24.0" xmlns="http://www.w3.org/2000/svg" xmlns:xlink="http://www.w3.org/1999/xlink"><defs><clipPath id="i0"><path d="M6.37176931,0.249446898 C6.679104,0.562615068 6.65645455,1.04920491 6.32118033,1.33627574 L3.016,4.166 L13.2279412,4.16666667 C13.6543375,4.16666667 14,4.53976271 14,5 C14,5.46023729 13.6543375,5.83333333 13.2279412,5.83333333 L3.015,5.833 L6.32118033,8.66372426 C6.65645455,8.95079509 6.679104,9.43738493 6.37176931,9.7505531 C6.06443461,10.0637213 5.54349716,10.0848774 5.20822294,9.79780653 L0.267050109,5.56704113 C-0.0890167031,5.26216713 -0.0890167031,4.73783287 0.267050109,4.43295887 L5.20822294,0.202193471 C5.54349716,-0.0848773517 6.06443461,-0.0637212715 6.37176931,0.249446898 Z"></path></clipPath><clipPath id="i1"><path d="M24,0 L24,24 L0,24 L0,0 L24,0 Z"></path></clipPath></defs><g transform="translate(7.0 19.0) rotate(-90.0)"><g clip-path="url(#i0)"><g transform="translate(19.0 -7.000000000000001) rotate(90.0)"><g clip-path="url(#i1)"><polygon points="7,5 17,5 17,19 7,19 7,5" stroke="none" fill="#31393E"></polygon></g></g></g></g></svg>