<?xml version="1.0" encoding="UTF-8"?><svg version="1.1" width="24px" height="24px" viewBox="0 0 24.0 24.0" xmlns="http://www.w3.org/2000/svg" xmlns:xlink="http://www.w3.org/1999/xlink"><defs><clipPath id="i0"><path d="M6.54545455,8.72727273 C6.94711618,8.72727273 7.27272727,9.05288382 7.27272727,9.45454545 L7.27272727,15.2727273 C7.27272727,15.6743889 6.94711618,16 6.54545455,16 L0.727272727,16 C0.325611091,16 0,15.6743889 0,15.2727273 L0,9.45454545 C0,9.05288382 0.325611091,8.72727273 0.727272727,8.72727273 L6.54545455,8.72727273 Z M15.2727273,8.72727273 C15.6743889,8.72727273 16,9.05288382 16,9.45454545 L16,15.2727273 C16,15.6743889 15.6743889,16 15.2727273,16 L9.45454545,16 C9.05288382,16 8.72727273,15.6743889 8.72727273,15.2727273 L8.72727273,9.45454545 C8.72727273,9.05288382 9.05288382,8.72727273 9.45454545,8.72727273 L15.2727273,8.72727273 Z M5.81818182,10.1818182 L1.45454545,10.1818182 L1.45454545,14.5454545 L5.81818182,14.5454545 L5.81818182,10.1818182 Z M14.5454545,10.1818182 L10.1818182,10.1818182 L10.1818182,14.5454545 L14.5454545,14.5454545 L14.5454545,10.1818182 Z M6.54545455,0 C6.94711618,0 7.27272727,0.325611091 7.27272727,0.727272727 L7.27272727,6.54545455 C7.27272727,6.94711618 6.94711618,7.27272727 6.54545455,7.27272727 L0.727272727,7.27272727 C0.325611091,7.27272727 0,6.94711618 0,6.54545455 L0,0.727272727 C0,0.325611091 0.325611091,0 0.727272727,0 L6.54545455,0 Z M15.2727273,0 C15.6743889,0 16,0.325611091 16,0.727272727 L16,6.54545455 C16,6.94711618 15.6743889,7.27272727 15.2727273,7.27272727 L9.45454545,7.27272727 C9.05288382,7.27272727 8.72727273,6.94711618 8.72727273,6.54545455 L8.72727273,0.727272727 C8.72727273,0.325611091 9.05288382,0 9.45454545,0 L15.2727273,0 Z M5.81818182,1.45454545 L1.45454545,1.45454545 L1.45454545,5.81818182 L5.81818182,5.81818182 L5.81818182,1.45454545 Z M14.5454545,1.45454545 L10.1818182,1.45454545 L10.1818182,5.81818182 L14.5454545,5.81818182 L14.5454545,1.45454545 Z"></path></clipPath><clipPath id="i1"><path d="M24,0 L24,24 L0,24 L0,0 L24,0 Z"></path></clipPath></defs><g transform="translate(4.25 4.25)"><g clip-path="url(#i0)"><g transform="translate(-4.25 -4.25)"><g clip-path="url(#i1)"><polygon points="4.25,4.25 20.25,4.25 20.25,20.25 4.25,20.25 4.25,4.25" stroke="none" fill="#31393E"></polygon></g></g></g></g></svg>