<?xml version="1.0" encoding="UTF-8"?><svg version="1.1" width="24px" height="24px" viewBox="0 0 24.0 24.0" xmlns="http://www.w3.org/2000/svg" xmlns:xlink="http://www.w3.org/1999/xlink"><defs><clipPath id="i0"><path d="M8,0 C12.418278,0 16,3.581722 16,8 C16,12.418278 12.418278,16 8,16 C3.581722,16 0,12.418278 0,8 C0,3.581722 3.581722,0 8,0 Z M8,1.0212766 C4.14575749,1.0212766 1.0212766,4.14575749 1.0212766,8 C1.0212766,11.8542425 4.14575749,14.9787234 8,14.9787234 C11.8542425,14.9787234 14.9787234,11.8542425 14.9787234,8 C14.9787234,4.14575749 11.8542425,1.0212766 8,1.0212766 Z M8.8951049,5.93006993 L8.895,10.629 L10.4615385,10.6293706 L10.4615385,11.8041958 L6.15384615,11.8041958 L6.15384615,10.6293706 L7.72,10.629 L7.72027972,7.1048951 L6.15384615,7.1048951 L6.15384615,5.93006993 L8.8951049,5.93006993 Z M8.30769231,3.38461538 C8.74025099,3.38461538 9.09090909,3.73527348 9.09090909,4.16783217 C9.09090909,4.60039085 8.74025099,4.95104895 8.30769231,4.95104895 C7.87513362,4.95104895 7.52447552,4.60039085 7.52447552,4.16783217 C7.52447552,3.73527348 7.87513362,3.38461538 8.30769231,3.38461538 Z"></path></clipPath><clipPath id="i1"><path d="M24,0 L24,24 L0,24 L0,0 L24,0 Z"></path></clipPath></defs><g transform="translate(4.0 4.0)"><g clip-path="url(#i0)"><g transform="translate(-4.0 -4.0)"><g clip-path="url(#i1)"><polygon points="4,4 20,4 20,20 4,20 4,4" stroke="none" fill="#31393E"></polygon></g></g></g></g></svg>