<?xml version="1.0" encoding="UTF-8"?><svg version="1.1" width="24px" height="24px" viewBox="0 0 24.0 24.0" xmlns="http://www.w3.org/2000/svg" xmlns:xlink="http://www.w3.org/1999/xlink"><defs><clipPath id="i0"><path d="M2.72277077,6 C3.8024096,6 4.47322547,6.38819303 5.24011935,7.25092001 C5.22318922,7.23187425 5.40989706,7.45029793 5.62046047,7.69226432 L5.78004686,7.87481077 C5.91208111,8.02504036 6.03587707,8.16357503 6.10754255,8.23818658 C6.5898575,8.74032884 7.08293607,9.11231414 7.716285,9.41039611 C7.97654999,9.5328883 8.07573401,9.81957962 7.93781871,10.0507391 C7.79990341,10.2818986 7.47711451,10.3699908 7.21684953,10.2474986 C6.45443423,9.88867233 5.86019729,9.44037176 5.29606075,8.85304433 C5.05803373,8.60523235 4.35462725,7.78362142 4.40293716,7.83796826 C3.81841183,7.18039908 3.41572386,6.94736842 2.72277077,6.94736842 C1.81233608,6.94736842 1.06665247,7.63301212 1.06665247,8.48684211 L1.06665247,14.0526316 L4.37888907,14.0526316 L4.37888907,10.5 C4.37888907,10.2383914 4.61766736,10.0263158 4.91221531,10.0263158 C5.20676325,10.0263158 5.44554154,10.2383914 5.44554154,10.5 L5.44554154,14.5263158 C5.44554154,14.7879244 5.20676325,15 4.91221531,15 L0.533326233,15 C0.238778288,15 0,14.7879244 0,14.5263158 L0,8.48684211 C0,7.11699928 1.2148118,6 2.72277077,6 Z M14.2772292,6 C15.7851882,6 17,7.11699928 17,8.48684211 L17,14.5263158 C17,14.7879244 16.7612217,15 16.4666738,15 L12.0877847,15 C11.7932367,15 11.5544585,14.7879244 11.5544585,14.5263158 L11.5544585,10.5 C11.5544585,10.2383914 11.7932367,10.0263158 12.0877847,10.0263158 C12.3823326,10.0263158 12.6211109,10.2383914 12.6211109,10.5 L12.6211109,14.0526316 L15.9333475,14.0526316 L15.9333475,8.48684211 C15.9333475,7.63301212 15.1876639,6.94736842 14.2772292,6.94736842 C13.5842761,6.94736842 13.1815882,7.18039908 12.5970628,7.83796826 C12.6453727,7.78362142 11.9419663,8.60523235 11.7039392,8.85304433 C11.1398027,9.44037176 10.5455658,9.88867233 9.78315047,10.2474986 C9.52288549,10.3699908 9.20009659,10.2818986 9.06218129,10.0507391 C8.92426599,9.81957962 9.02345001,9.5328883 9.283715,9.41039611 C9.91706393,9.11231414 10.4101425,8.74032884 10.8924575,8.23818658 C10.9641229,8.16357503 11.0879189,8.02504036 11.2199531,7.87481077 L11.3795395,7.69226432 C11.5901029,7.45029793 11.7768108,7.23187425 11.7598806,7.25092001 C12.5267745,6.38819303 13.1975904,6 14.2772292,6 Z M13.5,0 C14.8807119,0 16,1.11928813 16,2.5 C16,3.88071187 14.8807119,5 13.5,5 C12.1192881,5 11,3.88071187 11,2.5 C11,1.11928813 12.1192881,0 13.5,0 Z M3.5,0 C4.88071187,0 6,1.11928813 6,2.5 C6,3.88071187 4.88071187,5 3.5,5 C2.11928813,5 1,3.88071187 1,2.5 C1,1.11928813 2.11928813,0 3.5,0 Z M13.5,1 C12.6715729,1 12,1.67157288 12,2.5 C12,3.32842712 12.6715729,4 13.5,4 C14.3284271,4 15,3.32842712 15,2.5 C15,1.67157288 14.3284271,1 13.5,1 Z M3.5,1 C2.67157288,1 2,1.67157288 2,2.5 C2,3.32842712 2.67157288,4 3.5,4 C4.32842712,4 5,3.32842712 5,2.5 C5,1.67157288 4.32842712,1 3.5,1 Z"></path></clipPath><clipPath id="i1"><path d="M24,0 L24,24 L0,24 L0,0 L24,0 Z"></path></clipPath></defs><g transform="translate(4.0 5.0)"><g clip-path="url(#i0)"><g transform="translate(-4.0 -5.0)"><g clip-path="url(#i1)"><polygon points="4,5 21,5 21,20 4,20 4,5" stroke="none" fill="#31393E"></polygon></g></g></g></g></svg>