<?xml version="1.0" encoding="UTF-8"?><svg version="1.1" width="24px" height="24px" viewBox="0 0 24.0 24.0" xmlns="http://www.w3.org/2000/svg" xmlns:xlink="http://www.w3.org/1999/xlink"><defs><clipPath id="i0"><path d="M9.5,11.8857143 C9.77614237,11.8857143 10,12.2215007 10,12.6357143 C10,13.0499278 9.77614237,13.3857143 9.5,13.3857143 L0.5,13.3857143 C0.223857625,13.3857143 0,13.0499278 0,12.6357143 C0,12.2215007 0.223857625,11.8857143 0.5,11.8857143 L9.5,11.8857143 Z M15.5,5.94285714 C15.7761424,5.94285714 16,6.27864358 16,6.69285714 C16,7.10707071 15.7761424,7.44285714 15.5,7.44285714 L0.5,7.44285714 C0.223857625,7.44285714 0,7.10707071 0,6.69285714 C0,6.27864358 0.223857625,5.94285714 0.5,5.94285714 L15.5,5.94285714 Z M15.5,0 C15.7761424,0 16,0.335786438 16,0.75 C16,1.16421356 15.7761424,1.5 15.5,1.5 L0.5,1.5 C0.223857625,1.5 0,1.16421356 0,0.75 C0,0.335786438 0.223857625,0 0.5,0 L15.5,0 Z"></path></clipPath><clipPath id="i1"><path d="M24,0 L24,25 L0,25 L0,0 L24,0 Z"></path></clipPath></defs><g transform="translate(4.0 5.0)"><g clip-path="url(#i0)"><g transform="translate(-4.0 -5.0)"><g transform="translate(0.0 -1.0)"><g clip-path="url(#i1)"><polygon points="4,6 20,6 20,19.3857143 4,19.3857143 4,6" stroke="none" fill="#31393E"></polygon></g></g></g></g></g></svg>