<?xml version="1.0" encoding="UTF-8"?><svg version="1.1" width="24px" height="24px" viewBox="0 0 24.0 24.0" xmlns="http://www.w3.org/2000/svg" xmlns:xlink="http://www.w3.org/1999/xlink"><defs><clipPath id="i0"><path d="M8,0 C10.1036608,0 12.0245569,1.03432866 13.7293548,2.73912653 C14.3162537,3.32602549 14.8358684,3.95314666 15.2840354,4.58058044 C15.4412475,4.80067742 15.5785878,5.00556205 15.6954307,5.19024932 C15.7668567,5.30314847 15.816407,5.3857322 15.8434207,5.43300631 L16,5.70702 L15.8434207,5.9810337 C15.816407,6.02830781 15.7668567,6.11089153 15.6954307,6.22379069 C15.5785878,6.40847796 15.4412475,6.61336259 15.2840354,6.83345957 C14.8358684,7.46089335 14.3162537,8.08801452 13.7293548,8.67491348 C12.0245569,10.3797114 10.1036608,11.41404 8,11.41404 C5.89633918,11.41404 3.97544311,10.3797114 2.27064523,8.67491348 C1.68374627,8.08801452 1.16413159,7.46089335 0.715964604,6.83345957 C0.558752473,6.61336259 0.421412228,6.40847796 0.304569264,6.22379069 C0.233143266,6.11089153 0.183593032,6.02830781 0.156579254,5.9810337 L0,5.70702 L0.156579254,5.43300631 C0.183593032,5.3857322 0.233143266,5.30314847 0.304569264,5.19024932 C0.421412228,5.00556205 0.558752473,4.80067742 0.715964604,4.58058044 C1.16413159,3.95314666 1.68374627,3.32602549 2.27064523,2.73912653 C3.97544311,1.03432866 5.89633918,0 8,0 Z M8,1.10458452 C6.23761501,1.10458452 4.5686114,2.00327876 3.05170444,3.52018573 C2.5110067,4.06088347 2.02959166,4.64190161 1.614802,5.22260715 C1.49086496,5.39611899 1.38081447,5.55865183 1.28515997,5.70702 C1.38081447,5.85538818 1.49086496,6.01792101 1.614802,6.19143286 C2.02959166,6.77213839 2.5110067,7.35315654 3.05170444,7.89385428 C4.5686114,9.41076124 6.23761501,10.3094555 8,10.3094555 C9.76238499,10.3094555 11.4313886,9.41076124 12.9482956,7.89385428 C13.4889933,7.35315654 13.9704083,6.77213839 14.385198,6.19143286 C14.509135,6.01792101 14.6191855,5.85538818 14.71484,5.70702 C14.6191855,5.55865183 14.509135,5.39611899 14.385198,5.22260715 C13.9704083,4.64190161 13.4889933,4.06088347 12.9482956,3.52018573 C11.4313886,2.00327876 9.76238499,1.10458452 8,1.10458452 Z M8,2.94555871 C9.52511296,2.94555871 10.7614613,4.18190705 10.7614613,5.70702 C10.7614613,7.23213296 9.52511296,8.4684813 8,8.4684813 C6.47488704,8.4684813 5.23853871,7.23213296 5.23853871,5.70702 C5.23853871,4.18190705 6.47488704,2.94555871 8,2.94555871 Z M8,4.05014323 C7.08493222,4.05014323 6.34312322,4.79195223 6.34312322,5.70702 C6.34312322,6.62208778 7.08493222,7.36389678 8,7.36389678 C8.91506778,7.36389678 9.65687678,6.62208778 9.65687678,5.70702 C9.65687678,4.79195223 8.91506778,4.05014323 8,4.05014323 Z"></path></clipPath><clipPath id="i1"><path d="M24,0 L24,24 L0,24 L0,0 L24,0 Z"></path></clipPath></defs><g transform="translate(4.0 6.0)"><g clip-path="url(#i0)"><g transform="translate(-4.0 -6.0)"><g clip-path="url(#i1)"><polygon points="4,6 20,6 20,17.41404 4,17.41404 4,6" stroke="none" fill="#31393E"></polygon></g></g></g></g></svg>