<?xml version="1.0" encoding="UTF-8"?><svg version="1.1" width="24px" height="24px" viewBox="0 0 24.0 24.0" xmlns="http://www.w3.org/2000/svg" xmlns:xlink="http://www.w3.org/1999/xlink"><defs><clipPath id="i0"><path d="M7,10.2085 L7,11.5 C7,11.7761424 6.77614237,12 6.5,12 L0.5,12 C0.223857625,12 0,11.7761424 0,11.5 L0,10 C0,9.17135763 0.671357625,8.5 1.5,8.5 L3,8.5 L3,0.5 C3,0.223857625 3.22385763,0 3.5,0 L11.5,0 C11.7761424,0 12,0.223857625 12,0.5 L12,10.25 C12,11.2166424 11.2166424,12 10.25,12 C9.28335763,12 8.5,11.2166424 8.5,10.25 C8.5,9.79492645 8.18078346,9.5 7.75,9.5 C7.32222863,9.5 7,9.80744832 7,10.2085 Z M9.5,10.25 C9.5,10.6643576 9.83564237,11 10.25,11 C10.6643576,11 11,10.6643576 11,10.25 L11,1 L4,1 L4,8.5 L7.75,8.5 C8.71616631,8.5 9.5,9.22418958 9.5,10.25 Z M6.15249659,9.5 L1.5,9.5 C1.22364237,9.5 1,9.72364237 1,10 L1,11 L6,11 L6,10.2085 C6,9.95376903 6.05446278,9.71437667 6.15249659,9.5 Z M9,5.5 C9.27614237,5.5 9.5,5.72385763 9.5,6 C9.5,6.27614237 9.27614237,6.5 9,6.5 L6,6.5 C5.72385763,6.5 5.5,6.27614237 5.5,6 C5.5,5.72385763 5.72385763,5.5 6,5.5 L9,5.5 Z M9,3 C9.27614237,3 9.5,3.22385763 9.5,3.5 C9.5,3.77614237 9.27614237,4 9,4 L6,4 C5.72385763,4 5.5,3.77614237 5.5,3.5 C5.5,3.22385763 5.72385763,3 6,3 L9,3 Z"></path></clipPath><clipPath id="i1"><path d="M24,0 L24,24 L0,24 L0,0 L24,0 Z"></path></clipPath></defs><g transform="translate(5.5 6.5)"><g clip-path="url(#i0)"><g transform="translate(-5.5 -6.5)"><g clip-path="url(#i1)"><polygon points="5.5,6.5 17.5,6.5 17.5,18.5 5.5,18.5 5.5,6.5" stroke="none" fill="#31393E"></polygon></g></g></g></g></svg>