<?xml version="1.0" encoding="UTF-8"?><svg version="1.1" width="24px" height="24px" viewBox="0 0 24.0 24.0" xmlns="http://www.w3.org/2000/svg" xmlns:xlink="http://www.w3.org/1999/xlink"><defs><clipPath id="i0"><path d="M14.4340617,0 L15.0028152,0.568753458 L12.73,2.84 L12.7782341,2.87791658 C13.1022845,3.1413643 13.4193915,3.42916328 13.7293548,3.73912653 C14.3162537,4.32602549 14.8358684,4.95314666 15.2840354,5.58058044 C15.4412475,5.80067742 15.5785878,6.00556205 15.6954307,6.19024932 C15.7668567,6.30314847 15.816407,6.3857322 15.8434207,6.43300631 L16,6.70702 L15.8434207,6.9810337 C15.816407,7.02830781 15.7668567,7.11089153 15.6954307,7.22379069 C15.5785878,7.40847796 15.4412475,7.61336259 15.2840354,7.83345957 C14.8358684,8.46089335 14.3162537,9.08801452 13.7293548,9.67491348 C12.0245569,11.3797114 10.1036608,12.41404 8,12.41404 C6.7569277,12.41404 5.57767201,12.0528798 4.46911063,11.4056344 L4.279,11.291 L1.56464007,14.0069286 L0.995886614,13.4381751 L3.603,10.83 L3.4661024,10.7291092 C3.05671545,10.4151899 2.6580993,10.0623675 2.27064523,9.67491348 C1.68374627,9.08801452 1.16413159,8.46089335 0.715964604,7.83345957 C0.558752473,7.61336259 0.421412228,7.40847796 0.304569264,7.22379069 C0.233143266,7.11089153 0.183593032,7.02830781 0.156579254,6.9810337 L0,6.70702 L0.156579254,6.43300631 C0.183593032,6.3857322 0.233143266,6.30314847 0.304569264,6.19024932 C0.421412228,6.00556205 0.558752473,5.80067742 0.715964604,5.58058044 C1.16413159,4.95314666 1.68374627,4.32602549 2.27064523,3.73912653 C3.97544311,2.03432866 5.89633918,1 8,1 C9.43431419,1 10.7836654,1.4808346 12.0374883,2.32717458 L12.078,2.356 L14.4340617,0 Z M11.944,3.626 L10.335,5.235 L10.3844409,5.31325761 C10.6240893,5.72236299 10.7614613,6.19864902 10.7614613,6.70702 C10.7614613,8.23213296 9.52511296,9.4684813 8,9.4684813 C7.49162901,9.4684813 7.01534299,9.33110926 6.60623761,9.09146088 L6.528,9.042 L5.087,10.483 L5.30344944,10.6035106 C6.17072532,11.0605097 7.07242895,11.3094555 8,11.3094555 C9.76238499,11.3094555 11.4313886,10.4107612 12.9482956,8.89385428 C13.4889933,8.35315654 13.9704083,7.77213839 14.385198,7.19143286 C14.509135,7.01792101 14.6191855,6.85538818 14.71484,6.70702 C14.6191855,6.55865183 14.509135,6.39611899 14.385198,6.22260715 C13.9704083,5.64190161 13.4889933,5.06088347 12.9482956,4.52018573 C12.6289467,4.2008369 12.3028568,3.90888807 11.9705735,3.64695637 L11.944,3.626 Z M8,2.10458452 C6.23761501,2.10458452 4.5686114,3.00327876 3.05170444,4.52018573 C2.5110067,5.06088347 2.02959166,5.64190161 1.614802,6.22260715 C1.49086496,6.39611899 1.38081447,6.55865183 1.28515997,6.70702 C1.38081447,6.85538818 1.49086496,7.01792101 1.614802,7.19143286 C2.02959166,7.77213839 2.5110067,8.35315654 3.05170444,8.89385428 C3.45089048,9.29304032 3.86060953,9.64941385 4.27979155,9.9578633 L4.394,10.039 L5.916,8.518 L5.88799978,8.48619438 C5.48275566,8.00563604 5.23853871,7.38484799 5.23853871,6.70702 C5.23853871,5.18190705 6.47488704,3.94555871 8,3.94555871 C8.67782798,3.94555871 9.29861604,4.18977567 9.77917438,4.59501979 L9.811,4.623 L11.28,3.154 L11.2127163,3.10936806 C10.1889214,2.46306643 9.11308526,2.10458452 8,2.10458452 Z M9.521,6.049 L7.342,8.228 L7.45040467,8.27056793 C7.62238736,8.33101882 7.80735415,8.36389678 8,8.36389678 C8.91506778,8.36389678 9.65687678,7.62208778 9.65687678,6.70702 C9.65687678,6.51437416 9.62399881,6.32940737 9.56354792,6.15742467 L9.521,6.049 Z M8,5.05014323 C7.08493222,5.05014323 6.34312322,5.79195223 6.34312322,6.70702 C6.34312322,7.0923117 6.47463507,7.44688716 6.6952185,7.72830612 L6.7,7.734 L9.027,5.407 C8.73986715,5.18165507 8.38529169,5.05014323 8,5.05014323 Z"></path></clipPath><clipPath id="i1"><path d="M24,0 L24,24 L0,24 L0,0 L24,0 Z"></path></clipPath></defs><g transform="translate(4.0 5.000000000000001)"><g clip-path="url(#i0)"><g transform="translate(-4.0 -5.000000000000001)"><g clip-path="url(#i1)"><polygon points="4,5 20,5 20,19.0069286 4,19.0069286 4,5" stroke="none" fill="#31393E"></polygon></g></g></g></g></svg>