<?xml version="1.0" encoding="UTF-8"?><svg version="1.1" width="24px" height="24px" viewBox="0 0 24.0 24.0" xmlns="http://www.w3.org/2000/svg" xmlns:xlink="http://www.w3.org/1999/xlink"><defs><clipPath id="i0"><path d="M7.5494831,0 C8.99079263,0 10.3498984,0.382846701 11.5507087,1.1333531 L11.05789,1.92186293 C10.0061738,1.26454032 8.81801737,0.929848359 7.5494831,0.929848359 C3.90974623,0.929848359 0.929848359,3.90974623 0.929848359,7.5494831 C0.929848359,11.18922 3.90974623,14.1691178 7.5494831,14.1691178 C11.18922,14.1691178 14.1691178,11.18922 14.1691178,7.5494831 C14.1691178,6.93977535 14.1007188,6.34128325 13.9704626,5.82025846 L14.872548,5.59473711 C15.0219454,6.19232689 15.0989662,6.86625885 15.0989662,7.5494831 C15.0989662,11.702761 11.702761,15.0989662 7.5494831,15.0989662 C3.39620516,15.0989662 0,11.702761 0,7.5494831 C0,3.39620516 3.39620516,0 7.5494831,0 Z M15.3424979,0.515877992 L16,1.17338007 L7.5494831,9.62389697 L4.05815745,6.13257132 L4.71565953,5.47506924 L7.5494831,8.30889281 L15.3424979,0.515877992 Z"></path></clipPath><clipPath id="i1"><path d="M24,0 L24,24 L0,24 L0,0 L24,0 Z"></path></clipPath></defs><g transform="translate(4.0 5.0)"><g clip-path="url(#i0)"><g transform="translate(-4.0 -5.0)"><g clip-path="url(#i1)"><polygon points="4,5 20,5 20,20.0989662 4,20.0989662 4,5" stroke="none" fill="#31393E"></polygon></g></g></g></g></svg>