<?xml version="1.0" encoding="UTF-8"?><svg version="1.1" width="24px" height="24px" viewBox="0 0 24.0 24.0" xmlns="http://www.w3.org/2000/svg" xmlns:xlink="http://www.w3.org/1999/xlink"><defs><clipPath id="i0"><path d="M8.49973333,0 C9.36494237,0 10.0664,0.701457625 10.0664,1.56666667 L10.0664,2.33221565 C10.6629034,2.48290117 11.2306838,2.71803338 11.7543356,3.02975764 L12.2947133,2.48937994 C12.9065088,1.87758446 13.8985579,1.87758446 14.5103534,2.48937994 C15.1221489,3.10117542 15.1221489,4.09322458 14.5103534,4.70502006 L13.9699757,5.24539775 C14.2817,5.76904949 14.5168322,6.33682996 14.6675177,6.93333333 L15.4333333,6.93333333 C16.2985424,6.93333333 17,7.63479096 17,8.5 C17,9.36530734 16.2983945,10.0667917 15.4333333,10.0664 L14.668051,10.0664 C14.5173655,10.6629034 14.2822333,11.2306838 13.970509,11.7543356 L14.5108867,12.2947133 C15.1226822,12.9065088 15.1226822,13.8985579 14.5108867,14.5103534 C13.8990912,15.1221489 12.9070421,15.1221489 12.2952466,14.5103534 L11.7548689,13.9699757 C11.2312172,14.2817 10.6634367,14.5168322 10.0669333,14.6675177 L10.0669333,15.4333333 C10.0669333,16.2985424 9.36547571,17 8.50026667,17 C7.63505763,17 6.9336,16.2985424 6.9336,15.4333333 L6.9336,14.668051 C6.33709663,14.5173655 5.76931616,14.2822333 5.24566442,13.970509 L4.70528672,14.5108867 C4.09349124,15.1226822 3.10144209,15.1226822 2.48964661,14.5108867 C1.87785113,13.8990912 1.87785113,12.9070421 2.48964661,12.2952466 L3.03002431,11.7548689 C2.71830004,11.2312172 2.48316784,10.6634367 2.33248232,10.0669333 L1.56666667,10.0669333 C0.701457625,10.0669333 0,9.36547571 0,8.50026667 C0,7.63505763 0.701457625,6.9336 1.56666667,6.9336 L2.33194899,6.9336 C2.4826345,6.33709663 2.71776671,5.76931616 3.02949097,5.24566442 L2.48911328,4.70528672 C1.8773178,4.09349124 1.8773178,3.10144209 2.48911328,2.48964661 C3.10090876,1.87785113 4.09295791,1.87785113 4.70475339,2.48964661 L5.24513109,3.03002431 C5.76878283,2.71830004 6.3365633,2.48316784 6.93306667,2.33248232 L6.93306667,1.56666667 C6.93306667,0.701457625 7.63452429,0 8.49973333,0 Z M8.49973333,1 C8.18680904,1 7.93306667,1.25374237 7.93306667,1.56666667 L7.93306667,3.15130678 L7.5235711,3.22667407 C6.77646981,3.36417737 6.07552054,3.65528097 5.45974703,4.07968875 L5.116889,4.31599578 L3.99764661,3.19675339 C3.77637542,2.9754822 3.41749124,2.9754822 3.19622006,3.19675339 C2.97494887,3.41802458 2.97494887,3.77690876 3.19622006,3.99817994 L4.31546245,5.11742233 L4.07915541,5.46028036 C3.65474764,6.07605387 3.36364404,6.77700314 3.22614073,7.52410443 L3.15077345,7.9336 L1.56666667,7.9336 C1.25374237,7.9336 1,8.18734237 1,8.50026667 C1,8.81319096 1.25374237,9.06693333 1.56666667,9.06693333 L3.15130678,9.06693333 L3.22667407,9.4764289 C3.36417737,10.2235302 3.65528097,10.9244795 4.07968875,11.540253 L4.31599578,11.883111 L3.19675339,13.0023534 C2.9754822,13.2236246 2.9754822,13.5825088 3.19675339,13.8037799 C3.41802458,14.0250511 3.77690876,14.0250511 3.99817994,13.8037799 L5.11742233,12.6845376 L5.46028036,12.9208446 C6.07605387,13.3452524 6.77700314,13.636356 7.52410443,13.7738593 L7.9336,13.8492266 L7.9336,15.4333333 C7.9336,15.7462576 8.18734237,16 8.50026667,16 C8.81319096,16 9.06693333,15.7462576 9.06693333,15.4333333 L9.06693333,13.8486932 L9.4764289,13.7733259 C10.2235302,13.6358226 10.9244795,13.344719 11.540253,12.9203113 L11.883111,12.6840042 L13.0023534,13.8032466 C13.2236246,14.0245178 13.5825088,14.0245178 13.8037799,13.8032466 C14.0250511,13.5819754 14.0250511,13.2230912 13.8037799,13.0018201 L12.6845376,11.8825777 L12.9208446,11.5397196 C13.3452524,10.9239461 13.636356,10.2229969 13.7738593,9.47589557 L13.8492266,9.0664 L15.4335597,9.06640005 C15.746323,9.06654164 16,8.81290847 16,8.5 C16,8.18707571 15.7462576,7.93333333 15.4333333,7.93333333 L13.8486932,7.93333333 L13.7733259,7.52383776 C13.6358226,6.77673648 13.344719,6.07578721 12.9203113,5.4600137 L12.6840042,5.11715567 L13.8032466,3.99791328 C14.0245178,3.77664209 14.0245178,3.41775791 13.8032466,3.19648672 C13.5819754,2.97521554 13.2230912,2.97521554 13.0018201,3.19648672 L11.8825777,4.31572911 L11.5397196,4.07942208 C10.9239461,3.6550143 10.2229969,3.3639107 9.47589557,3.2264074 L9.0664,3.15104012 L9.0664,1.56666667 C9.0664,1.25374237 8.81265763,1 8.49973333,1 Z M8.5,6 C9.88071187,6 11,7.11928813 11,8.5 C11,9.88071187 9.88071187,11 8.5,11 C7.11928813,11 6,9.88071187 6,8.5 C6,7.11928813 7.11928813,6 8.5,6 Z M8.5,7 C7.67157288,7 7,7.67157288 7,8.5 C7,9.32842712 7.67157288,10 8.5,10 C9.32842712,10 10,9.32842712 10,8.5 C10,7.67157288 9.32842712,7 8.5,7 Z"></path></clipPath><clipPath id="i1"><path d="M24,0 L24,24 L0,24 L0,0 L24,0 Z"></path></clipPath></defs><g transform="translate(3.5 3.5)"><g clip-path="url(#i0)"><g transform="translate(-3.5 -3.5)"><g clip-path="url(#i1)"><polygon points="3.5,3.5 20.5,3.5 20.5,20.5 3.5,20.5 3.5,3.5" stroke="none" fill="#31393E"></polygon></g></g></g></g></svg>