<?xml version="1.0" encoding="UTF-8"?><svg version="1.1" width="24px" height="24px" viewBox="0 0 24.0 24.0" xmlns="http://www.w3.org/2000/svg" xmlns:xlink="http://www.w3.org/1999/xlink"><defs><clipPath id="i0"><path d="M2.5,1 C2.77614237,1 3,1.22385763 3,1.5 C3,1.77614237 2.77614237,2 2.5,2 L1.5,2 C1.22414237,2 1,2.22414237 1,2.5 L1,14.5 C1,14.7758576 1.22414237,15 1.5,15 L12.5,15 C12.7758576,15 13,14.7758576 13,14.5 L13,2.5 C13,2.22414237 12.7758576,2 12.5,2 L11.5,2 C11.2238576,2 11,1.77614237 11,1.5 C11,1.22385763 11.2238576,1 11.5,1 L12.5,1 C13.3281424,1 14,1.67185763 14,2.5 L14,14.5 C14,15.3281424 13.3281424,16 12.5,16 L1.5,16 C0.671857625,16 0,15.3281424 0,14.5 L0,2.5 C0,1.67185763 0.671857625,1 1.5,1 L2.5,1 Z M10.5,10 C10.7761424,10 11,10.2238576 11,10.5 C11,10.7761424 10.7761424,11 10.5,11 L3.5,11 C3.22385763,11 3,10.7761424 3,10.5 C3,10.2238576 3.22385763,10 3.5,10 L10.5,10 Z M10.5,6 C10.7761424,6 11,6.22385763 11,6.5 C11,6.77614237 10.7761424,7 10.5,7 L3.5,7 C3.22385763,7 3,6.77614237 3,6.5 C3,6.22385763 3.22385763,6 3.5,6 L10.5,6 Z M9.5,0 C9.77614237,0 10,0.223857625 10,0.5 L10,2.5 C10,2.77614237 9.77614237,3 9.5,3 L4.5,3 C4.22385763,3 4,2.77614237 4,2.5 L4,0.5 C4,0.223857625 4.22385763,0 4.5,0 L9.5,0 Z M9,1 L5,1 L5,2 L9,2 L9,1 Z"></path></clipPath><clipPath id="i1"><path d="M24,0 L24,24 L0,24 L0,0 L24,0 Z"></path></clipPath></defs><g transform="translate(5.0 4.0)"><g clip-path="url(#i0)"><g transform="translate(-5.0 -4.0)"><g clip-path="url(#i1)"><polygon points="5,4 19,4 19,20 5,20 5,4" stroke="none" fill="#31393E"></polygon></g></g></g></g></svg>