<?xml version="1.0" encoding="UTF-8"?><svg version="1.1" width="24px" height="24px" viewBox="0 0 24.0 24.0" xmlns="http://www.w3.org/2000/svg" xmlns:xlink="http://www.w3.org/1999/xlink"><defs><clipPath id="i0"><path d="M16,6.5 L16,14.5 C16,15.3281424 15.3281424,16 14.5,16 L1.5,16 C0.671857625,16 0,15.3281424 0,14.5 L0,6.5 C0,6.12253975 0.402240954,5.88119518 0.735294118,6.05882353 L8,9.93333333 L15.2647059,6.05882353 C15.597759,5.88119518 16,6.12253975 16,6.5 Z M15,7.33333333 L8.23529412,10.9411765 C8.08823529,11.0196078 7.91176471,11.0196078 7.76470588,10.9411765 L1,7.33333333 L1,14.5 C1,14.7758576 1.22414237,15 1.5,15 L14.5,15 C14.7758576,15 15,14.7758576 15,14.5 L15,7.33333333 Z M10.5,6 C11.1666667,6 11.1666667,7 10.5,7 L5.5,7 C4.83333333,7 4.83333333,6 5.5,6 L10.5,6 Z M13.5,0 C13.7761424,0 14,0.223857625 14,0.5 L14,5 C14,5.27614237 13.7761424,5.5 13.5,5.5 C13.2238576,5.5 13,5.27614237 13,5 L13,1 L3,1 L3,5 C3,5.27614237 2.77614237,5.5 2.5,5.5 C2.22385763,5.5 2,5.27614237 2,5 L2,0.5 C2,0.223857625 2.22385763,0 2.5,0 L13.5,0 Z M10.5,3 C11.1666667,3 11.1666667,4 10.5,4 L5.5,4 C4.83333333,4 4.83333333,3 5.5,3 L10.5,3 Z"></path></clipPath><clipPath id="i1"><path d="M24,0 L24,24 L0,24 L0,0 L24,0 Z"></path></clipPath></defs><g transform="translate(4.0 4.0)"><g clip-path="url(#i0)"><g transform="translate(-4.0 -4.0)"><g clip-path="url(#i1)"><polygon points="4,4 20,4 20,20 4,20 4,4" stroke="none" fill="#31393E"></polygon></g></g></g></g></svg>