<?xml version="1.0" encoding="UTF-8"?><svg version="1.1" width="24px" height="24px" viewBox="0 0 24.0 24.0" xmlns="http://www.w3.org/2000/svg" xmlns:xlink="http://www.w3.org/1999/xlink"><defs><clipPath id="i0"><path d="M12.3659571,10.4958463 L14.9513673,15.6666667 L0,15.6666667 L2.5854102,10.4958463 L3.47983739,10.9430599 L1.61803399,14.6666667 L13.3333333,14.6666667 L11.4715299,10.9430599 L12.3659571,10.4958463 Z M7.47568366,0 C10.2511811,0 12.6423503,2.15537411 12.6423503,5.16666667 C12.6423503,6.01637103 12.3038599,7.00103364 11.6908543,8.10694488 C11.2951718,8.82078773 10.7923967,9.5705171 10.2071649,10.340912 C9.68762231,11.0248342 9.13202447,11.6876346 8.57642907,12.3047093 C8.38190042,12.5207635 8.20110725,12.7158398 8.03858013,12.8867976 C7.94034777,12.9901255 7.86950982,13.0629724 7.83060538,13.1021797 L7.47568366,13.4598648 L7.12076194,13.1021797 C7.0818575,13.0629724 7.01101956,12.9901255 6.9127872,12.8867976 C6.75026008,12.7158398 6.5694669,12.5207635 6.37493825,12.3047093 C5.81934286,11.6876346 5.26374501,11.0248342 4.74420242,10.340912 C4.15897064,9.5705171 3.65619549,8.82078773 3.26051305,8.10694488 C2.64750746,7.00103364 2.30901699,6.01637103 2.30901699,5.16666667 C2.30901699,2.15537411 4.70018618,0 7.47568366,0 Z M7.47568366,1 C5.23065401,1 3.30901699,2.73214288 3.30901699,5.16666667 C3.30901699,5.81360771 3.59695979,6.65122807 4.13513645,7.62214192 C4.50522301,8.28980775 4.98218542,9.00104562 5.54049823,9.73600462 C6.04178898,10.3959002 6.57994113,11.0378888 7.11809574,11.6355928 C7.24381352,11.7752218 7.36346435,11.9056477 7.47568366,12.0259082 C7.58790297,11.9056477 7.7075538,11.7752218 7.83327159,11.6355928 C8.37142619,11.0378888 8.90957834,10.3959002 9.41086909,9.73600462 C9.96918191,9.00104562 10.4461443,8.28980775 10.8162309,7.62214192 C11.3544075,6.65122807 11.6423503,5.81360771 11.6423503,5.16666667 C11.6423503,2.73214288 9.72071332,1 7.47568366,1 Z M7.47568366,3.33333333 C8.4882057,3.33333333 9.30901699,4.15414463 9.30901699,5.16666667 C9.30901699,6.17918871 8.4882057,7 7.47568366,7 C6.46316162,7 5.64235033,6.17918871 5.64235033,5.16666667 C5.64235033,4.15414463 6.46316162,3.33333333 7.47568366,3.33333333 Z M7.47568366,4.33333333 C7.01544637,4.33333333 6.64235033,4.70642938 6.64235033,5.16666667 C6.64235033,5.62690396 7.01544637,6 7.47568366,6 C7.93592095,6 8.30901699,5.62690396 8.30901699,5.16666667 C8.30901699,4.70642938 7.93592095,4.33333333 7.47568366,4.33333333 Z"></path></clipPath><clipPath id="i1"><path d="M24,0 L24,24 L0,24 L0,0 L24,0 Z"></path></clipPath></defs><g transform="translate(4.524316338960488 4.166666666666515)"><g clip-path="url(#i0)"><g transform="translate(-4.524316338960488 -4.166666666666515)"><g clip-path="url(#i1)"><polygon points="4.52431634,4.16666667 19.4756837,4.16666667 19.4756837,19.8333333 4.52431634,19.8333333 4.52431634,4.16666667" stroke="none" fill="#31393E"></polygon></g></g></g></g></svg>