<?xml version="1.0" encoding="UTF-8"?><svg version="1.1" width="24px" height="24px" viewBox="0 0 24.0 24.0" xmlns="http://www.w3.org/2000/svg" xmlns:xlink="http://www.w3.org/1999/xlink"><defs><clipPath id="i0"><path d="M2.85355339,0.146446609 L5.85355339,3.14644661 C6.04881554,3.34170876 6.04881554,3.65829124 5.85355339,3.85355339 L4.20710678,5.5 L9.5,10.7928932 L11.1464466,9.14644661 C11.3417088,8.95118446 11.6582912,8.95118446 11.8535534,9.14644661 L14.8535534,12.1464466 C15.0488155,12.3417088 15.0488155,12.6582912 14.8535534,12.8535534 L12.8535534,14.8535534 C12.7597852,14.9473216 12.6326082,15 12.5,15 C5.59685763,15 0,9.40314237 0,2.5 C0,2.36739176 0.0526784202,2.2402148 0.146446609,2.14644661 L2.14644661,0.146446609 C2.34170876,-0.0488155365 2.65829124,-0.0488155365 2.85355339,0.146446609 Z M2.5,1.20710678 L1.00179626,2.70531052 C1.1101485,8.89316803 6.10683197,13.8898515 12.2946895,13.9982037 L13.7928932,12.5 L11.5,10.2071068 L9.85355339,11.8535534 C9.65829124,12.0488155 9.34170876,12.0488155 9.14644661,11.8535534 L3.14644661,5.85355339 C2.95118446,5.65829124 2.95118446,5.34170876 3.14644661,5.14644661 L4.79289322,3.5 L2.5,1.20710678 Z M8,3 C10.2091424,3 12,4.79085763 12,7 C12,7.27614237 11.7761424,7.5 11.5,7.5 C11.2238576,7.5 11,7.27614237 11,7 C11,5.34314237 9.65685763,4 8,4 C7.72385763,4 7.5,3.77614237 7.5,3.5 C7.5,3.22385763 7.72385763,3 8,3 Z M8,0 C11.8661424,0 15,3.13385763 15,7 C15,7.27614237 14.7761424,7.5 14.5,7.5 C14.2238576,7.5 14,7.27614237 14,7 C14,3.68614237 11.3138576,1 8,1 C7.72385763,1 7.5,0.776142375 7.5,0.5 C7.5,0.223857625 7.72385763,0 8,0 Z"></path></clipPath><clipPath id="i1"><path d="M24,0 L24,24 L0,24 L0,0 L24,0 Z"></path></clipPath></defs><g transform="translate(4.5 4.5)"><g clip-path="url(#i0)"><g transform="translate(-4.5 -4.5)"><g clip-path="url(#i1)"><polygon points="4.5,4.5 19.5,4.5 19.5,19.5 4.5,19.5 4.5,4.5" stroke="none" fill="#31393E"></polygon></g></g></g></g></svg>